<svg version="1.1" id="Layer_1" xmlns="http://www.w3.org/2000/svg" xmlns:xlink="http://www.w3.org/1999/xlink" x="0px" y="0px"
	 width="100%" viewBox="0 0 228 95" enable-background="new 0 0 228 95" xml:space="preserve">
<path fill="#070B18" opacity="1.000000" stroke="none" 
	d="
M41.943260,7.032804 
	C42.939693,6.697940 44.431358,6.661722 44.845165,5.975514 
	C46.469082,3.282607 48.318771,2.397111 51.425743,3.574890 
	C52.208645,3.871669 53.681221,2.349096 54.918427,1.331300 
	C56.066669,1.000000 57.133339,1.000000 58.600006,1.000000 
	C59.010227,8.898689 62.542622,11.806977 70.400253,10.997842 
	C72.309143,10.801274 74.374939,12.128442 76.779709,13.161739 
	C77.803024,14.062289 78.415222,14.556074 78.829636,15.253315 
	C78.076172,15.973705 77.520493,16.490639 76.767189,17.018761 
	C76.569565,17.029949 76.173752,17.036980 75.963516,16.706230 
	C73.930374,15.723350 72.107460,15.071218 69.933357,14.345635 
	C66.083771,13.490517 62.585384,12.708851 59.001320,11.628630 
	C58.242294,10.939445 57.568947,10.548815 56.645004,10.028694 
	C56.023056,9.841790 55.651707,9.784377 55.186981,9.384200 
	C53.205410,7.884756 51.351387,5.284699 48.996540,8.948530 
	C48.077541,10.190755 47.005630,11.404685 47.040154,12.586289 
	C47.150158,16.351450 47.671593,20.104593 47.791016,24.046928 
	C45.421040,23.483358 43.294140,22.735237 40.385220,21.712046 
	C39.954815,21.871777 38.464046,22.425024 36.917805,22.653805 
	C35.989262,21.204395 35.116188,20.079453 34.204491,18.546303 
	C34.770409,15.423908 35.374950,12.709723 36.313755,9.923655 
	C38.413097,8.912116 40.178181,7.972460 41.943260,7.032804 
M47.526539,7.454280 
	C47.526539,7.454280 47.563499,7.524863 47.526539,7.454280 
z"/>
<path fill="#06080E" opacity="1.000000" stroke="none" 
	d="
M229.000000,48.625000 
	C227.924423,49.200462 226.848862,49.400921 225.750381,49.605648 
	C227.327484,55.570488 227.330307,55.619888 219.762405,56.051949 
	C213.667282,56.399929 207.564926,56.627647 201.463715,56.853214 
	C200.846191,56.876041 200.214508,56.515949 199.514069,55.877506 
	C201.493484,54.047134 203.548218,52.672813 206.190430,50.905560 
	C204.083176,48.598820 202.036331,46.358196 199.989471,44.117577 
	C200.768204,43.431385 201.546921,42.745186 202.768875,42.352783 
	C204.945419,45.163609 206.842575,48.028404 210.350967,46.104744 
	C216.656921,42.647175 222.794693,45.862202 229.000000,46.000000 
	C229.000000,46.750000 229.000000,47.500000 229.000000,48.625000 
M208.412720,50.485687 
	C208.412720,50.485687 208.516159,50.426636 208.412720,50.485687 
z"/>
<path fill="#040404" opacity="1.000000" stroke="none" 
	d="
M229.000000,45.583336 
	C222.794693,45.862202 216.656921,42.647175 210.350967,46.104744 
	C206.842575,48.028404 204.945419,45.163609 203.109100,42.323898 
	C208.074890,41.000843 213.109482,39.551300 218.224777,39.161819 
	C221.502106,38.912289 224.898514,40.226620 228.620758,40.919945 
	C229.000000,42.388889 229.000000,43.777779 229.000000,45.583336 
z"/>
<path fill="#14263C" opacity="1.000000" stroke="none" 
	d="
M50.333332,96.000000 
	C49.495125,94.812439 48.990250,93.624870 48.277336,91.879562 
	C48.378414,90.213089 48.687538,89.104370 49.033581,87.686882 
	C49.095097,87.172241 49.119686,86.966370 49.331123,86.627975 
	C49.727848,86.262070 49.897751,86.002487 49.864017,85.635544 
	C49.700363,85.554359 49.388847,85.363457 49.458321,85.264053 
	C49.527798,85.164642 49.764343,85.110985 50.147884,85.134430 
	C51.063221,86.730759 51.595020,88.303635 52.272949,90.308716 
	C54.859249,88.981819 56.927773,87.920563 59.402020,86.984634 
	C61.468216,86.849380 63.128693,86.588806 64.837616,86.769821 
	C64.919365,87.802574 64.952667,88.393761 64.985970,88.984940 
	C64.238632,89.010963 63.491299,89.036987 62.011173,89.085815 
	C58.185589,91.405746 55.092796,93.702873 52.000000,96.000000 
	C51.555553,96.000000 51.111111,96.000000 50.333332,96.000000 
z"/>
<path fill="#040405" opacity="1.000000" stroke="none" 
	d="
M52.437500,96.000000 
	C55.092796,93.702873 58.185589,91.405746 61.637245,89.090607 
	C61.047939,91.156693 60.099766,93.240776 59.075794,95.662430 
	C56.958332,96.000000 54.916668,96.000000 52.437500,96.000000 
z"/>
<path fill="#03040B" opacity="1.000000" stroke="none" 
	d="
M36.973278,22.978270 
	C38.464046,22.425024 39.954815,21.871777 40.385220,21.712046 
	C43.294140,22.735237 45.421040,23.483358 48.220879,24.114786 
	C50.688526,23.945545 52.495117,23.741623 54.274715,23.881388 
	C56.201706,24.032730 58.103523,24.504602 60.016319,24.836683 
	C61.767860,26.178480 63.330078,28.156902 65.305908,28.744490 
	C71.611313,30.619637 78.070328,31.978224 84.437683,33.987320 
	C82.034439,34.180134 79.669312,33.815876 77.291397,33.685986 
	C72.468307,33.422523 67.424965,31.031094 62.667946,35.025436 
	C61.910336,35.046906 61.477531,35.059570 60.837128,34.785454 
	C57.558052,32.212074 55.319992,32.585938 53.906002,36.587967 
	C53.230476,36.759567 52.844326,36.857418 52.148659,36.985851 
	C48.551289,37.019505 45.263428,37.022579 41.742500,37.016266 
	C41.509438,37.006874 41.043217,36.990467 41.031330,36.751053 
	C41.019444,36.511642 40.975613,36.034241 41.205330,35.768631 
	C41.952599,33.997028 42.470146,32.491032 42.922310,30.738132 
	C42.205933,30.317570 41.554935,30.143911 40.680557,29.975374 
	C40.457169,29.980497 40.010468,29.993750 39.578217,29.980049 
	C35.328327,29.052483 31.526115,28.062197 27.680702,27.285925 
	C26.861280,27.120508 25.884722,27.733501 24.658915,28.095623 
	C22.890646,28.797647 21.444017,29.391926 19.997391,29.986206 
	C20.524933,26.198414 21.052477,22.410622 22.046436,18.434042 
	C23.034336,18.470564 23.555820,18.695875 24.047630,18.935947 
	C24.017954,18.950710 24.043541,18.898684 24.035324,19.293690 
	C25.173441,24.591131 27.545889,25.712070 31.429588,22.986528 
	C33.562183,22.985149 35.267731,22.981710 36.973278,22.978270 
z"/>
<path fill="#081127" opacity="1.000000" stroke="none" 
	d="
M62.992756,35.016636 
	C67.424965,31.031094 72.468307,33.422523 77.291397,33.685986 
	C79.669312,33.815876 82.034439,34.180134 84.713760,34.227257 
	C95.177795,34.016499 105.338875,33.823757 115.486465,34.109558 
	C119.708351,34.228466 123.890259,35.450432 128.110199,36.025013 
	C135.461090,37.025883 142.838898,37.832428 150.183914,38.872387 
	C157.189453,39.864285 164.171143,41.028698 171.149918,42.197239 
	C171.631973,42.277954 172.002502,43.024784 171.877594,43.735458 
	C167.572372,43.972313 163.814453,43.935555 159.749176,43.723320 
	C158.514755,43.390366 157.587677,43.232883 156.322998,42.899132 
	C148.802246,42.140694 141.617264,41.580349 134.436737,40.967541 
	C130.607162,40.640713 126.785324,40.223228 122.625916,39.801186 
	C121.853661,39.841118 121.415466,39.926529 120.674606,39.864170 
	C118.240768,39.445553 116.109596,39.174702 113.830124,38.831696 
	C113.681824,38.759544 113.364029,38.847950 113.139359,38.490433 
	C106.407784,37.827641 99.901031,37.518532 93.392403,37.256031 
	C93.300850,37.252338 93.185707,37.833630 92.622421,38.243443 
	C88.426537,38.276463 84.689789,38.207935 80.554153,38.069897 
	C78.805138,37.949833 77.455009,37.899281 76.099312,37.402115 
	C73.064331,36.552670 70.034920,36.149830 66.699303,35.596382 
	C65.259644,35.302727 64.126198,35.159683 62.992756,35.016636 
z"/>
<path fill="#0C1B35" opacity="1.000000" stroke="none" 
	d="
M199.651779,44.055866 
	C202.036331,46.358196 204.083176,48.598820 206.190430,50.905560 
	C203.548218,52.672813 201.493484,54.047134 199.216949,55.645782 
	C193.718216,55.815388 188.345505,55.099686 183.184875,55.847458 
	C173.308243,57.278580 163.581573,59.719124 153.728271,61.352116 
	C150.768250,61.842674 147.594910,61.045906 143.856049,60.651207 
	C142.474503,59.984253 141.756180,59.504971 141.217819,58.808807 
	C141.606537,58.084618 141.815277,57.577312 142.436783,57.005394 
	C144.228775,56.975056 145.608017,57.009331 147.003815,57.408813 
	C149.069763,57.544857 151.119141,57.315693 153.249329,56.921051 
	C153.330124,56.755566 153.214935,56.405739 153.522888,56.364731 
	C154.228119,56.206703 154.625381,56.089676 155.383331,56.093014 
	C156.495621,56.141796 157.247208,56.070217 158.335175,56.054489 
	C159.119354,56.035812 159.567139,55.961288 160.463623,55.985989 
	C163.380737,56.034199 166.033234,56.547474 168.279236,55.814728 
	C172.956604,54.288776 178.573227,54.738354 181.957794,49.607033 
	C180.387482,48.408157 178.741470,47.591763 177.101929,46.439827 
	C177.077118,45.882748 177.045837,45.661213 177.014572,45.439674 
	C177.014572,45.439674 176.882690,45.118477 177.311371,44.989388 
	C178.528122,44.837639 179.316162,44.814976 180.555847,44.839375 
	C185.014526,44.607239 189.021606,44.328037 193.028671,44.048836 
	C195.123810,44.030609 197.218948,44.012383 199.651779,44.055866 
M195.359024,48.074615 
	C192.618423,48.392738 189.854782,48.589043 187.150803,49.100666 
	C186.301559,49.261349 185.612640,50.269417 184.850342,50.889618 
	C185.506287,51.624275 186.192215,53.017094 186.813400,52.988796 
	C191.513458,52.774731 196.700577,54.477291 201.011475,49.600212 
	C199.163345,48.994846 197.678223,48.508381 195.359024,48.074615 
z"/>
<path fill="#05050C" opacity="1.000000" stroke="none" 
	d="
M76.173752,17.036980 
	C76.173752,17.036980 76.569565,17.029949 77.062973,16.993462 
	C78.046722,16.321270 78.537064,15.685565 79.027412,15.049860 
	C78.415222,14.556074 77.803024,14.062289 77.099197,13.273220 
	C81.621407,12.500738 86.235245,12.023540 90.975288,11.533290 
	C90.844330,14.366220 90.507164,13.765267 80.516678,19.370522 
	C76.156174,21.817022 72.510071,23.079128 67.428215,21.639416 
	C67.003265,20.517357 67.019508,19.771358 67.230896,18.968994 
	C67.426025,18.912626 67.831429,18.938469 68.193909,19.000324 
	C71.095512,18.387114 73.634636,17.712048 76.173752,17.036980 
z"/>
<path fill="#0E2237" opacity="1.000000" stroke="none" 
	d="
M67.035759,19.025360 
	C67.019508,19.771358 67.003265,20.517357 67.011765,21.636112 
	C64.876137,22.807587 62.715763,23.606304 60.285854,24.620853 
	C58.103523,24.504602 56.201706,24.032730 54.274715,23.881388 
	C52.495117,23.741623 50.688526,23.945545 48.463959,23.930237 
	C47.671593,20.104593 47.150158,16.351450 47.040154,12.586289 
	C47.005630,11.404685 48.077541,10.190755 49.269119,9.005049 
	C50.524944,9.681245 51.154667,10.344016 51.756828,11.368591 
	C51.877804,12.174413 52.026337,12.618429 52.148491,13.372524 
	C52.184731,14.091334 52.247341,14.500065 52.148323,15.330000 
	C51.986694,17.463049 51.986694,19.174892 51.986694,20.963346 
	C57.429413,20.262444 62.232586,19.643902 67.035759,19.025360 
z"/>
<path fill="#6CADDF" opacity="1.000000" stroke="none" 
	d="
M177.095474,46.775372 
	C178.741470,47.591763 180.387482,48.408157 181.621033,49.639374 
	C178.070267,50.333420 174.931931,50.612640 171.565430,50.683826 
	C170.534531,49.088493 169.731812,47.701195 169.252045,46.172905 
	C170.397873,45.734985 171.220734,45.438057 172.043579,45.141129 
	C172.043579,45.141129 172.362137,45.247570 172.560211,45.435566 
	C172.758270,45.623562 172.974701,46.061207 173.095688,46.365246 
	C174.509613,46.704647 175.802536,46.740009 177.095474,46.775372 
z"/>
<path fill="#080816" opacity="1.000000" stroke="none" 
	d="
M192.684509,43.889145 
	C189.021606,44.328037 185.014526,44.607239 180.522171,44.642014 
	C180.036880,44.397587 179.996338,43.996952 179.996338,43.996952 
	C184.111008,43.907787 188.225677,43.818623 192.684509,43.889145 
z"/>
<path fill="#0C1B35" opacity="1.000000" stroke="none" 
	d="
M172.131134,44.879696 
	C171.220734,45.438057 170.397873,45.734985 168.826233,46.050873 
	C165.420654,46.034096 162.763870,45.998363 160.110046,45.682121 
	C159.971603,45.055546 159.830215,44.709480 159.781662,44.247974 
	C159.874481,44.132530 160.056534,43.898792 160.056534,43.898792 
	C163.814453,43.935555 167.572372,43.972313 171.823257,44.042316 
	C172.283722,44.256462 172.251205,44.437363 172.131134,44.879696 
z"/>
<path fill="#5B90BC" opacity="1.000000" stroke="none" 
	d="
M177.101929,46.439827 
	C175.802536,46.740009 174.509613,46.704647 173.370453,46.266529 
	C173.693542,45.767845 173.862885,45.671921 174.032211,45.575996 
	C174.778122,45.551228 175.524033,45.526459 176.642258,45.470684 
	C177.045837,45.661213 177.077118,45.882748 177.101929,46.439827 
z"/>
<path fill="#081127" opacity="1.000000" stroke="none" 
	d="
M179.731293,43.964020 
	C179.996338,43.996952 180.036880,44.397587 180.070557,44.594948 
	C179.316162,44.814976 178.528122,44.837639 177.348160,44.819725 
	C177.792923,44.496456 178.629593,44.213772 179.731293,43.964020 
z"/>
<path fill="#0C1B35" opacity="1.000000" stroke="none" 
	d="
M173.842773,45.412903 
	C173.862885,45.671921 173.693542,45.767845 173.249451,45.962490 
	C172.974701,46.061207 172.758270,45.623562 172.719452,45.382198 
	C173.004852,45.177162 173.329102,45.213490 173.842773,45.412903 
z"/>
<path fill="#06050B" opacity="1.000000" stroke="none" 
	d="
M70.005005,64.010307 
	C67.572289,65.005150 65.208817,66.272438 62.686207,66.913589 
	C60.434956,67.485779 58.007874,67.366165 55.071583,67.598213 
	C56.311745,70.447800 57.136276,72.342369 57.576912,74.608673 
	C53.713711,75.254707 49.772659,73.189247 46.748913,76.993896 
	C46.507759,76.993858 46.025215,76.991760 45.580765,76.990234 
	C42.767174,76.996780 40.398033,77.004868 37.648766,77.008789 
	C36.509098,77.005676 35.749550,77.006721 34.995003,77.003883 
	C35.000000,77.000000 34.992191,77.009216 34.993919,76.670181 
	C34.991848,75.878922 34.988041,75.426689 34.986332,74.648697 
	C34.988911,73.888580 34.989391,73.454224 34.996159,72.779701 
	C35.002445,72.539536 35.012589,72.059143 35.245159,72.046638 
	C35.627831,71.440834 35.777927,70.847527 35.968254,70.095207 
	C37.656059,69.229370 39.828873,68.114731 42.320053,66.896545 
	C44.312828,65.573608 45.987236,64.354218 47.647373,63.145218 
	C48.174053,63.810196 48.559624,64.073982 48.545742,64.314728 
	C48.433289,66.264946 48.245884,68.210831 48.082176,70.148064 
	C52.947292,70.874458 53.031883,70.736710 52.202400,64.069435 
	C52.934769,64.095818 53.465237,64.048157 54.250385,64.092560 
	C55.380981,64.084526 56.256893,63.984428 57.506714,63.873039 
	C59.588032,63.555752 61.295441,63.249744 63.117603,63.243053 
	C65.489906,63.698345 67.747452,63.854328 70.005005,64.010307 
z"/>
<path fill="#0A1321" opacity="1.000000" stroke="none" 
	d="
M46.990067,76.993927 
	C49.772659,73.189247 53.713711,75.254707 57.603523,74.965538 
	C60.189060,75.532059 62.364090,76.113441 64.996277,77.116425 
	C68.967850,78.697746 72.482277,79.857475 75.996696,81.017212 
	C78.059448,81.359810 80.122192,81.702408 82.579895,82.269997 
	C82.974846,82.494987 82.975296,82.910889 82.971268,83.330994 
	C82.970604,84.872154 82.973969,85.993210 82.976074,87.407623 
	C82.971680,88.090363 82.968544,88.479744 82.965416,88.869125 
	C79.274330,89.055206 75.584572,89.277481 71.891640,89.413261 
	C69.802368,89.490089 67.707886,89.424850 65.300858,89.204269 
	C64.952667,88.393761 64.919365,87.802574 65.141327,86.597954 
	C67.287422,85.448906 69.178261,84.913300 71.069099,84.377693 
	C71.062981,84.018929 71.056862,83.660156 71.050743,83.301384 
	C68.393181,82.481148 65.735619,81.660912 62.894272,80.547523 
	C60.779766,80.002098 58.464439,80.336815 56.998001,79.375969 
	C53.898022,77.344749 51.865788,78.268608 49.647690,80.563957 
	C48.930519,80.260933 48.430336,80.103783 47.804825,79.661469 
	C47.449688,78.582176 47.219875,77.788055 46.990067,76.993927 
z"/>
<path fill="#5781B0" opacity="1.000000" stroke="none" 
	d="
M142.024033,57.070000 
	C141.815277,57.577312 141.606537,58.084618 141.114349,58.736206 
	C140.541428,58.811916 140.302795,58.881519 140.115036,59.089294 
	C139.711426,59.077328 139.307816,59.065361 138.301941,59.075493 
	C135.146957,59.112274 132.594223,59.126957 129.653198,59.055511 
	C127.504875,59.347282 125.744858,59.725178 123.524750,60.041782 
	C115.357887,60.275360 107.651131,60.570229 100.126961,60.537251 
	C101.824951,59.787975 103.327553,59.311497 104.858185,58.955574 
	C109.233337,57.938210 113.619873,56.969814 118.450951,55.989388 
	C121.588310,55.972767 124.276665,55.948914 127.397171,55.959167 
	C132.194199,55.950649 136.559082,55.908028 141.137466,56.037918 
	C141.575333,56.496952 141.799683,56.783474 142.024033,57.070000 
z"/>
<path fill="#040613" opacity="1.000000" stroke="none" 
	d="
M99.944366,60.865097 
	C107.651131,60.570229 115.357887,60.275360 123.539948,60.337311 
	C124.021576,61.087223 124.027916,61.480305 124.034248,61.873390 
	C124.435822,62.400436 124.837402,62.927483 125.344063,63.592453 
	C116.382820,63.956070 107.540169,64.403023 98.691910,64.610329 
	C96.549034,64.660538 94.387634,63.919975 92.372337,63.032906 
	C93.668648,61.999630 94.827370,61.476498 96.380714,60.896072 
	C97.831680,60.847549 98.888023,60.856323 99.944366,60.865097 
z"/>
<path fill="#0C0E1A" opacity="1.000000" stroke="none" 
	d="
M82.975296,82.910889 
	C82.975296,82.910889 82.974846,82.494987 82.974396,82.288040 
	C85.258453,81.799004 87.562920,81.625748 89.823227,81.211571 
	C94.167747,80.415474 96.440086,82.091187 96.676392,87.629761 
	C92.422974,88.063461 88.146118,88.499557 83.417343,88.902390 
	C82.968544,88.479744 82.971680,88.090363 83.233765,87.202927 
	C83.320244,85.440208 83.147766,84.175545 82.975296,82.910889 
z"/>
<path fill="#040613" opacity="1.000000" stroke="none" 
	d="
M70.378586,64.003815 
	C67.747452,63.854328 65.489906,63.698345 63.392525,63.156700 
	C64.060410,62.232929 64.568123,61.694828 65.479004,61.096287 
	C67.243385,61.063366 68.604591,61.090885 70.254135,61.292946 
	C72.038177,61.356888 73.533890,61.246284 75.348808,61.092979 
	C76.095543,61.015606 76.523056,60.980930 77.221596,61.164627 
	C81.661659,61.913578 85.830704,62.444153 89.999748,62.974731 
	C85.371468,63.347721 80.746269,63.768196 76.113335,64.069618 
	C74.335373,64.185295 72.539749,64.029442 70.378586,64.003815 
z"/>
<path fill="#0C203D" opacity="1.000000" stroke="none" 
	d="
M90.333328,62.969795 
	C85.830704,62.444153 81.661659,61.913578 77.276016,60.874710 
	C77.050713,59.978291 77.042015,59.590164 77.386551,59.249119 
	C78.448654,59.337055 79.157516,59.377914 79.940887,59.749100 
	C83.783249,59.809242 87.551796,59.347317 91.318604,59.361046 
	C92.876343,59.366722 94.430374,60.391872 95.986092,60.953365 
	C94.827370,61.476498 93.668648,61.999630 92.255257,62.715488 
	C91.556030,62.927097 91.111473,62.945980 90.333328,62.969795 
z"/>
<path fill="#02060D" opacity="1.000000" stroke="none" 
	d="
M75.914200,80.674683 
	C72.482277,79.857475 68.967850,78.697746 65.222923,77.297577 
	C67.776886,74.801483 72.345169,76.181755 75.914200,80.674683 
z"/>
<path fill="#040613" opacity="1.000000" stroke="none" 
	d="
M130.041504,59.141632 
	C132.594223,59.126957 135.146957,59.112274 138.010956,59.183273 
	C136.745926,63.778877 132.372238,60.955284 129.344299,62.781143 
	C129.000000,63.000000 129.002747,62.997032 129.002747,62.997032 
	C128.471741,62.760601 127.940750,62.524166 127.439110,61.889610 
	C128.326141,60.708202 129.183823,59.924919 130.041504,59.141632 
z"/>
<path fill="#0C1B35" opacity="1.000000" stroke="none" 
	d="
M129.653198,59.055511 
	C129.183823,59.924919 128.326141,60.708202 127.235062,61.677746 
	C126.259132,61.880642 125.516594,61.897278 124.404160,61.893654 
	C124.027916,61.480305 124.021576,61.087223 124.000038,60.398605 
	C125.744858,59.725178 127.504875,59.347282 129.653198,59.055511 
z"/>
<path fill="#040613" opacity="1.000000" stroke="none" 
	d="
M140.110291,59.567833 
	C140.302795,58.881519 140.541428,58.811916 140.934387,58.953087 
	C141.756180,59.504971 142.474503,59.984253 143.563904,60.662537 
	C143.412582,61.718769 142.890182,62.575996 142.367783,63.433228 
	C141.613693,62.304279 140.859619,61.175323 140.110291,59.567833 
z"/>
<path fill="#040613" opacity="1.000000" stroke="none" 
	d="
M128.998718,63.000763 
	C129.164246,63.231228 129.331070,63.460930 129.497879,63.690628 
	C129.347656,63.564568 129.197433,63.438507 129.024979,63.154739 
	C129.002747,62.997032 129.000000,63.000000 128.998718,63.000763 
z"/>
<path fill="#1F2332" opacity="1.000000" stroke="none" 
	d="
M22.046753,63.804787 
	C6.011553,65.230362 1.652141,49.971947 7.211360,41.159870 
	C7.959693,39.973663 9.268631,39.141121 10.660958,38.446098 
	C11.662376,42.347382 14.406114,43.123203 18.376190,41.396404 
	C21.067825,40.225666 24.074232,39.778614 26.957920,39.250504 
	C26.975977,39.493099 27.008211,39.978634 26.858624,40.171257 
	C26.495968,40.611336 26.259027,40.833305 25.737045,41.184490 
	C24.937302,41.949837 24.398724,42.560486 23.613811,43.386398 
	C22.000792,43.851028 20.615799,44.383049 19.270899,44.295963 
	C15.466597,44.049614 14.440703,45.505016 14.739120,49.336945 
	C15.223346,55.554848 19.714045,55.353752 24.131821,56.218655 
	C24.593531,57.337822 24.827471,58.205406 24.749702,59.174164 
	C23.640913,60.785149 22.843834,62.294968 22.046753,63.804787 
z"/>
<path fill="#141620" opacity="1.000000" stroke="none" 
	d="
M21.925983,64.143524 
	C22.843834,62.294968 23.640913,60.785149 24.910313,59.418766 
	C28.264950,60.724163 31.147268,61.886127 34.162888,63.358894 
	C35.324821,66.275414 36.617912,68.427834 40.334419,66.997131 
	C41.112476,66.997520 41.557083,66.998810 42.001690,67.000092 
	C39.828873,68.114731 37.656059,69.229370 35.968254,70.095207 
	C35.777927,70.847527 35.627831,71.440834 34.974564,71.998840 
	C33.645561,72.313461 32.819729,72.663368 31.996403,73.006378 
	C31.998911,72.999474 32.013138,73.002434 31.766680,72.817139 
	C29.352772,72.412399 27.185322,72.192955 25.017874,71.973511 
	C22.650211,70.403053 20.282551,68.832611 17.767429,67.164352 
	C19.063168,66.303658 20.434191,65.392960 21.925983,64.143524 
z"/>
<path fill="#161A26" opacity="1.000000" stroke="none" 
	d="
M34.989872,73.019867 
	C34.989391,73.454224 34.988911,73.888580 34.716576,74.708153 
	C33.995686,75.450607 33.546654,75.807854 33.097622,76.165100 
	C33.729145,76.446472 34.360668,76.727844 34.992191,77.009216 
	C34.992191,77.009216 35.000000,77.000000 34.935638,77.322052 
	C34.561462,78.449318 34.251652,79.254532 33.572556,80.046516 
	C28.601635,81.627502 26.949087,84.752831 28.997890,88.323639 
	C28.983423,89.136185 28.974693,89.600822 28.965963,90.065453 
	C27.537863,89.806206 26.109760,89.546951 24.193947,88.772766 
	C23.470686,85.838860 23.235140,83.419891 22.999596,81.000916 
	C23.563000,79.864113 24.126402,78.727310 25.230190,77.311554 
	C27.371666,77.032593 28.972757,77.032593 30.440603,77.032593 
	C31.058966,75.447823 31.536051,74.225128 32.013138,73.002434 
	C32.013138,73.002434 31.998911,72.999474 32.371197,73.001816 
	C33.492279,73.009399 34.241074,73.014633 34.989872,73.019867 
z"/>
<path fill="#121420" opacity="1.000000" stroke="none" 
	d="
M26.939863,39.007904 
	C24.074232,39.778614 21.067825,40.225666 18.376190,41.396404 
	C14.406114,43.123203 11.662376,42.347382 11.003683,38.362457 
	C13.410627,36.996300 15.817827,36.015072 18.961014,35.047882 
	C22.468445,35.710121 25.239891,36.358318 27.883213,37.259274 
	C27.483349,38.010654 27.211605,38.509281 26.939863,39.007904 
z"/>
<path fill="#0B0713" opacity="1.000000" stroke="none" 
	d="
M28.011337,37.006516 
	C25.239891,36.358318 22.468445,35.710121 19.340023,35.021858 
	C18.850378,34.028503 18.717709,33.075218 19.123810,32.060196 
	C20.104624,31.998142 20.546665,31.997831 21.223097,32.302490 
	C26.092100,32.826653 30.741776,33.340279 35.353111,33.104408 
	C36.954411,33.022503 38.460754,31.084185 40.010468,29.993752 
	C40.010468,29.993750 40.457169,29.980497 40.901615,30.175129 
	C41.893272,30.574854 42.440487,30.779945 42.987698,30.985037 
	C42.470146,32.491032 41.952599,33.997028 40.752781,35.756153 
	C36.050785,36.341694 32.031063,36.674103 28.011337,37.006516 
z"/>
<path fill="#171B29" opacity="1.000000" stroke="none" 
	d="
M41.488667,7.028944 
	C40.178181,7.972460 38.413097,8.912116 36.057053,9.752476 
	C31.666603,11.129052 27.867117,12.604926 23.915594,13.880389 
	C23.520262,13.450623 23.276962,13.221266 23.033665,12.991910 
	C24.016514,7.821711 28.595938,8.003150 32.200733,7.229141 
	C35.029377,6.621783 38.081326,7.054451 41.488667,7.028944 
z"/>
<path fill="#1C2231" opacity="1.000000" stroke="none" 
	d="
M29.269678,90.093819 
	C28.974693,89.600822 28.983423,89.136185 29.214073,88.221970 
	C31.015574,87.133507 32.595154,86.494637 34.479164,86.000259 
	C37.143871,87.488228 39.504143,88.831703 41.982986,90.376526 
	C42.319599,90.979553 42.537640,91.381248 42.755684,91.782936 
	C39.805008,91.852158 36.854332,91.921379 33.352345,91.683624 
	C32.131229,90.971268 31.461424,90.565872 30.791622,90.160477 
	C30.385546,90.147713 29.979469,90.134949 29.269678,90.093819 
z"/>
<path fill="#06080F" opacity="1.000000" stroke="none" 
	d="
M31.766678,72.817139 
	C31.536051,74.225128 31.058966,75.447823 30.440603,77.032593 
	C28.972757,77.032593 27.371666,77.032593 25.397655,77.036621 
	C25.018747,75.633171 25.012758,74.225685 25.012321,72.395859 
	C27.185322,72.192955 29.352772,72.412399 31.766678,72.817139 
z"/>
<path fill="#091121" opacity="1.000000" stroke="none" 
	d="
M43.196030,91.840500 
	C42.537640,91.381248 42.319599,90.979553 42.330128,90.306419 
	C43.384125,89.355965 44.209553,88.676956 45.431190,87.998138 
	C46.883816,87.997429 47.940239,87.996536 48.996658,87.995644 
	C48.687538,89.104370 48.378414,90.213089 48.026527,91.666595 
	C46.534630,91.973602 45.085506,91.935837 43.196030,91.840500 
z"/>
<path fill="#06080F" opacity="1.000000" stroke="none" 
	d="
M22.663252,81.157455 
	C23.235140,83.419891 23.470686,85.838860 23.861729,88.623184 
	C19.207558,87.365585 20.590225,84.378777 22.663252,81.157455 
z"/>
<path fill="#080B14" opacity="1.000000" stroke="none" 
	d="
M20.988707,31.997520 
	C20.546665,31.997831 20.104624,31.998142 19.331043,31.998480 
	C19.204346,31.469854 19.409185,30.941206 19.805708,30.199381 
	C21.444017,29.391926 22.890646,28.797647 24.637011,28.440920 
	C23.620735,29.784821 22.304720,30.891169 20.988707,31.997520 
z"/>
<path fill="#080B14" opacity="1.000000" stroke="none" 
	d="
M22.813015,13.289833 
	C23.276962,13.221266 23.520262,13.450623 23.908501,14.283035 
	C24.061396,16.231123 24.069351,17.576153 24.077305,18.921185 
	C23.555820,18.695875 23.034336,18.470564 22.256197,18.122856 
	C22.197149,16.529558 22.394758,15.058658 22.813015,13.289833 
z"/>
<path fill="#161A26" opacity="1.000000" stroke="none" 
	d="
M30.931461,90.428436 
	C31.461424,90.565872 32.131229,90.971268 32.905685,91.668083 
	C32.363995,91.538475 31.717649,91.117432 30.931461,90.428436 
z"/>
<path fill="#78AFCA" opacity="1.000000" stroke="none" 
	d="
M67.230896,18.968994 
	C62.232586,19.643902 57.429413,20.262444 51.986694,20.963346 
	C51.986694,19.174892 51.986694,17.463049 52.453476,15.463575 
	C54.576115,16.002180 56.231964,16.828415 57.887817,17.654650 
	C58.174923,16.805393 58.831001,15.285326 58.692795,15.209308 
	C57.081818,14.323208 55.366920,13.613144 53.640820,12.958561 
	C53.225090,12.800904 52.667316,13.017800 52.174866,13.062447 
	C52.026337,12.618429 51.877804,12.174413 52.098351,11.219236 
	C53.405067,10.381040 54.342709,10.054002 55.280354,9.726965 
	C55.651707,9.784377 56.023056,9.841790 56.723442,10.329971 
	C57.730648,11.149554 58.408825,11.538370 59.086998,11.927185 
	C62.585384,12.708851 66.083771,13.490517 70.123459,14.655922 
	C69.720306,16.339264 68.775864,17.638866 67.831429,18.938469 
	C67.831429,18.938469 67.426025,18.912626 67.230896,18.968994 
z"/>
<path fill="#333A4D" opacity="1.000000" stroke="none" 
	d="
M24.047630,18.935947 
	C24.069351,17.576153 24.061396,16.231123 24.060535,14.483446 
	C27.867117,12.604926 31.666603,11.129052 35.722794,9.824358 
	C35.374950,12.709723 34.770409,15.423908 33.910057,18.740280 
	C31.087582,18.587986 28.520922,17.833508 25.711346,17.193409 
	C24.993467,17.838089 24.518503,18.368385 24.043541,18.898684 
	C24.043541,18.898684 24.017954,18.950710 24.047630,18.935947 
z"/>
<path fill="#171B29" opacity="1.000000" stroke="none" 
	d="
M25.954260,17.079027 
	C28.520922,17.833508 31.087582,18.587986 33.948681,19.148487 
	C35.116188,20.079453 35.989262,21.204395 36.917805,22.653805 
	C35.267731,22.981710 33.562183,22.985149 31.233189,22.708996 
	C29.057913,20.645943 27.506086,18.862486 25.954260,17.079027 
z"/>
<path fill="#0E2237" opacity="1.000000" stroke="none" 
	d="
M68.193909,19.000324 
	C68.775864,17.638866 69.720306,16.339264 70.474655,14.729376 
	C72.107460,15.071218 73.930374,15.723350 75.963516,16.706230 
	C73.634636,17.712048 71.095512,18.387114 68.193909,19.000324 
z"/>
<path fill="#496C8A" opacity="1.000000" stroke="none" 
	d="
M55.186981,9.384201 
	C54.342709,10.054002 53.405067,10.381040 52.125904,10.857431 
	C51.154667,10.344016 50.524944,9.681245 49.622643,8.961956 
	C51.351387,5.284699 53.205410,7.884756 55.186981,9.384201 
z"/>
<path fill="#496C8A" opacity="1.000000" stroke="none" 
	d="
M59.001320,11.628630 
	C58.408825,11.538370 57.730648,11.149554 56.974037,10.459461 
	C57.568947,10.548815 58.242294,10.939445 59.001320,11.628630 
z"/>
<path fill="#0E2237" opacity="1.000000" stroke="none" 
	d="
M78.829636,15.253317 
	C78.537064,15.685565 78.046722,16.321270 77.260590,16.982273 
	C77.520493,16.490639 78.076172,15.973705 78.829636,15.253317 
z"/>
<path fill="#0E2237" opacity="1.000000" stroke="none" 
	d="
M47.545021,7.489572 
	C47.563499,7.524863 47.526539,7.454280 47.545021,7.489572 
z"/>
<path fill="#0C1B35" opacity="1.000000" stroke="none" 
	d="
M208.464447,50.456161 
	C208.516159,50.426636 208.412720,50.485687 208.464447,50.456161 
z"/>
<path fill="#94CAE4" opacity="1.000000" stroke="none" 
	d="
M49.864681,80.709831 
	C51.865788,78.268608 53.898022,77.344749 56.998001,79.375969 
	C58.464439,80.336815 60.779766,80.002098 62.918812,80.855034 
	C61.750191,83.256897 60.373245,85.058098 58.996300,86.859299 
	C56.927773,87.920563 54.859249,88.981819 52.272949,90.308716 
	C51.595020,88.303635 51.063221,86.730759 50.119278,84.799393 
	C49.602825,84.010757 49.498528,83.580620 49.513016,82.752365 
	C49.709427,81.806114 49.787056,81.257973 49.864681,80.709831 
z"/>
<path fill="#0A1321" opacity="1.000000" stroke="none" 
	d="
M49.394234,83.150475 
	C49.498528,83.580620 49.602825,84.010757 49.735733,84.775940 
	C49.764343,85.110985 49.527798,85.164642 49.383835,85.268494 
	C49.239868,85.372345 48.948811,85.530693 48.990314,85.839310 
	C49.069302,86.352112 49.106789,86.556297 49.144279,86.760490 
	C49.119686,86.966370 49.095097,87.172241 49.033581,87.686882 
	C47.940239,87.996536 46.883816,87.997429 45.260994,87.682091 
	C43.815994,85.655586 43.067654,83.860542 42.024483,82.257355 
	C40.829174,80.420364 39.372189,78.753647 38.028889,77.012955 
	C40.398033,77.004868 42.767174,76.996780 45.396313,77.173615 
	C45.190842,77.759430 44.725376,78.160339 44.259914,78.561249 
	C45.172489,79.044716 46.085068,79.528183 47.001717,80.327370 
	C47.801933,81.478889 48.598083,82.314682 49.394234,83.150475 
z"/>
<path fill="#7EB1CB" opacity="1.000000" stroke="none" 
	d="
M59.402020,86.984627 
	C60.373245,85.058098 61.750191,83.256897 63.102600,81.148186 
	C65.735619,81.660912 68.393181,82.481148 71.050743,83.301384 
	C71.056862,83.660156 71.062981,84.018929 71.069099,84.377693 
	C69.178261,84.913300 67.287422,85.448906 65.092880,86.156372 
	C63.128693,86.588806 61.468216,86.849380 59.402020,86.984627 
z"/>
<path fill="#091121" opacity="1.000000" stroke="none" 
	d="
M48.948811,85.530693 
	C48.948811,85.530693 49.239868,85.372345 49.314358,85.367905 
	C49.388847,85.363457 49.700363,85.554359 49.599693,85.559723 
	C49.315620,85.553635 49.132217,85.542168 48.948811,85.530693 
z"/>
<path fill="#374A6D" opacity="1.000000" stroke="none" 
	d="
M48.990314,85.839310 
	C49.132217,85.542168 49.315620,85.553635 49.763351,85.640907 
	C49.897751,86.002487 49.727848,86.262070 49.331123,86.627975 
	C49.106789,86.556297 49.069302,86.352112 48.990314,85.839310 
z"/>
<path fill="#3C0E0E" opacity="1.000000" stroke="none" 
	d="
M34.029587,63.048088 
	C31.147268,61.886127 28.264950,60.724163 25.222023,59.317596 
	C24.827471,58.205406 24.593531,57.337822 24.130133,55.805309 
	C23.924162,51.423096 23.947645,47.705807 24.322571,44.000999 
	C25.141275,44.048531 25.608538,44.083580 26.093277,44.549175 
	C26.098841,46.790398 25.903347,48.621979 26.106792,50.408119 
	C26.988596,58.149944 34.385029,62.282074 40.347958,58.106236 
	C41.164864,56.676014 41.645824,55.391392 42.350163,54.003830 
	C42.695751,53.264114 42.817963,52.627335 43.054825,51.698128 
	C43.210880,50.989182 43.252277,50.572670 43.573757,49.974037 
	C45.555508,46.933254 45.038525,44.641380 42.086136,42.952942 
	C42.062347,42.940289 42.028118,42.898663 41.961693,42.557030 
	C38.421059,37.855083 32.483738,38.631306 29.444798,43.839867 
	C28.087729,43.949413 27.100721,44.013832 26.083984,43.697586 
	C26.035574,42.554546 26.016893,41.792168 25.998211,41.029789 
	C26.259027,40.833305 26.495968,40.611336 27.235226,40.098293 
	C32.188683,38.885296 36.615952,37.937881 41.043217,36.990467 
	C41.043217,36.990467 41.509438,37.006874 41.850006,37.342819 
	C43.824474,41.447319 45.458378,45.215878 47.059341,49.410591 
	C46.677940,52.554058 46.329487,55.271366 45.741234,58.128792 
	C43.330822,59.835968 41.160217,61.403027 38.576191,62.986217 
	C36.785042,63.017597 35.407314,63.032841 34.029587,63.048088 
z"/>
<path fill="#0E1019" opacity="1.000000" stroke="none" 
	d="
M47.092285,48.984436 
	C45.458378,45.215878 43.824474,41.447319 42.083069,37.352207 
	C45.263428,37.022579 48.551289,37.019505 52.215355,37.349495 
	C53.832123,40.153366 55.072689,42.624180 56.073814,45.444355 
	C56.013687,48.263863 56.264317,50.731762 56.342228,53.205101 
	C56.381218,54.443092 56.105125,55.691010 55.663330,57.061066 
	C55.252361,58.511242 55.149601,59.834785 55.034355,61.370342 
	C55.021862,61.582352 54.994328,62.006210 54.803658,62.217102 
	C54.407227,62.952160 54.201469,63.476326 53.995705,64.000488 
	C53.465237,64.048157 52.934769,64.095818 52.001320,63.817444 
	C51.372978,62.667816 51.147617,61.844238 51.037270,60.786346 
	C51.320072,58.354198 51.381607,56.141850 51.679298,53.961746 
	C52.190048,50.221287 50.130424,47.917252 47.092285,48.984436 
z"/>
<path fill="#121623" opacity="1.000000" stroke="none" 
	d="
M21.223097,32.302486 
	C22.304720,30.891169 23.620735,29.784821 24.958652,28.333176 
	C25.884722,27.733501 26.861280,27.120508 27.680702,27.285925 
	C31.526115,28.062197 35.328327,29.052483 39.578217,29.980051 
	C38.460754,31.084185 36.954411,33.022503 35.353111,33.104408 
	C30.741776,33.340279 26.092100,32.826653 21.223097,32.302486 
z"/>
<path fill="#6A8DAC" opacity="1.000000" stroke="none" 
	d="
M56.313251,45.094994 
	C55.072689,42.624180 53.832123,40.153366 52.524864,37.318909 
	C52.844326,36.857418 53.230476,36.759567 54.245697,36.668289 
	C56.898724,36.408398 58.922680,36.141930 61.376511,35.950451 
	C63.539433,35.932625 65.272476,35.839806 67.005516,35.746990 
	C70.034920,36.149830 73.064331,36.552670 75.626892,37.412956 
	C70.431007,37.937523 65.700577,37.956062 60.973522,38.091946 
	C58.551601,38.161564 56.569813,38.775169 58.059166,42.287056 
	C58.229084,43.115337 58.345379,43.583290 58.297859,44.333656 
	C57.527115,44.775711 56.920181,44.935352 56.313251,45.094994 
z"/>
<path fill="#391A24" opacity="1.000000" stroke="none" 
	d="
M41.031330,36.751053 
	C36.615952,37.937881 32.188683,38.885296 27.384813,39.905670 
	C27.008211,39.978634 26.975977,39.493099 26.957920,39.250504 
	C27.211605,38.509281 27.483349,38.010654 27.883213,37.259270 
	C32.031063,36.674103 36.050785,36.341694 40.523064,36.021759 
	C40.975613,36.034241 41.019444,36.511642 41.031330,36.751053 
z"/>
<path fill="#080B14" opacity="1.000000" stroke="none" 
	d="
M25.711346,17.193409 
	C27.506086,18.862486 29.057913,20.645943 30.806139,22.706936 
	C27.545889,25.712070 25.173441,24.591131 24.035324,19.293690 
	C24.518503,18.368385 24.993467,17.838089 25.711346,17.193409 
z"/>
<path fill="#081127" opacity="1.000000" stroke="none" 
	d="
M60.946632,35.875462 
	C58.922680,36.141930 56.898724,36.408398 54.535072,36.594536 
	C55.319992,32.585938 57.558052,32.212074 60.817276,34.986610 
	C61.005028,35.474548 60.946632,35.875462 60.946632,35.875462 
z"/>
<path fill="#1C314B" opacity="1.000000" stroke="none" 
	d="
M61.376511,35.950451 
	C60.946632,35.875462 61.005028,35.474548 61.024879,35.273392 
	C61.477531,35.059570 61.910336,35.046906 62.667946,35.025436 
	C64.126198,35.159683 65.259644,35.302727 66.699303,35.596382 
	C65.272476,35.839806 63.539433,35.932625 61.376511,35.950451 
z"/>
<path fill="#121623" opacity="1.000000" stroke="none" 
	d="
M42.922310,30.738132 
	C42.440487,30.779945 41.893272,30.574854 41.125000,30.170006 
	C41.554935,30.143911 42.205933,30.317570 42.922310,30.738132 
z"/>
<path fill="#71C1E7" opacity="1.000000" stroke="none" 
	d="
M58.005547,41.926723 
	C56.569813,38.775169 58.551601,38.161564 60.973522,38.091946 
	C65.700577,37.956062 70.431007,37.937523 75.632462,37.859562 
	C77.455009,37.899281 78.805138,37.949833 80.697388,38.403522 
	C84.821480,39.558090 88.403435,40.309517 92.018478,41.386292 
	C92.700172,42.478031 93.348793,43.244431 93.976547,44.325142 
	C93.937210,44.848652 93.918755,45.057842 93.500244,45.253990 
	C91.766472,45.205021 90.432777,45.169102 88.867905,44.933315 
	C87.757645,45.115879 86.878563,45.498310 85.684845,45.754124 
	C81.168938,40.858692 75.464569,41.304722 69.489479,41.139256 
	C65.370567,41.377304 61.688057,41.652012 58.005547,41.926723 
z"/>
<path fill="#598CC2" opacity="1.000000" stroke="none" 
	d="
M91.985397,41.060947 
	C88.403435,40.309517 84.821480,39.558090 81.096283,38.473034 
	C84.689789,38.207935 88.426537,38.276463 92.857384,38.396378 
	C100.155663,38.581161 106.759850,38.714554 113.364029,38.847950 
	C113.364029,38.847950 113.681824,38.759544 114.077545,39.088089 
	C116.641273,39.615070 118.809280,39.813503 120.977280,40.011940 
	C121.415466,39.926529 121.853661,39.841118 122.641045,40.152306 
	C123.008522,41.251495 123.026802,41.954086 122.715958,42.758068 
	C121.933846,42.920887 121.480843,42.982319 120.683395,43.022255 
	C119.879059,43.017269 119.419174,43.033787 118.531311,43.031952 
	C109.397346,42.362717 100.691376,41.711834 91.985397,41.060947 
z"/>
<path fill="#5E88B3" opacity="1.000000" stroke="none" 
	d="
M123.045082,42.656681 
	C123.026802,41.954086 123.008522,41.251495 122.975113,40.197781 
	C126.785324,40.223228 130.607162,40.640713 134.436737,40.967541 
	C141.617264,41.580349 148.802246,42.140694 156.327576,43.161659 
	C156.691147,43.774265 156.712509,43.948078 156.365417,44.197525 
	C153.948776,44.603291 151.900589,44.933426 149.559143,45.248508 
	C148.874390,45.233883 148.482925,45.234310 147.819244,44.939499 
	C144.662888,44.175224 141.778732,43.706184 138.486786,43.206158 
	C135.052353,42.994709 132.025696,42.814247 128.857040,42.380043 
	C127.470802,42.321957 126.226570,42.517616 124.658890,42.737885 
	C123.905319,42.727222 123.475204,42.691952 123.045082,42.656681 
z"/>
<path fill="#5E88B3" opacity="1.000000" stroke="none" 
	d="
M113.139359,38.490433 
	C106.759850,38.714554 100.155663,38.581161 93.316528,38.294830 
	C93.185707,37.833630 93.300850,37.252338 93.392403,37.256031 
	C99.901031,37.518532 106.407784,37.827641 113.139359,38.490433 
z"/>
<path fill="#5E88B3" opacity="1.000000" stroke="none" 
	d="
M120.674606,39.864170 
	C118.809280,39.813503 116.641273,39.615070 114.225853,39.160240 
	C116.109596,39.174702 118.240768,39.445553 120.674606,39.864170 
z"/>
<path fill="#0C1B35" opacity="1.000000" stroke="none" 
	d="
M156.733871,44.121891 
	C156.712509,43.948078 156.691147,43.774265 156.665192,43.337925 
	C157.587677,43.232883 158.514755,43.390366 159.749176,43.723320 
	C160.056534,43.898792 159.874481,44.132530 159.409821,44.323853 
	C158.208069,44.384083 157.470963,44.252987 156.733871,44.121891 
z"/>
<path fill="#658CB5" opacity="1.000000" stroke="none" 
	d="
M195.776062,48.048264 
	C197.678223,48.508381 199.163345,48.994846 201.011475,49.600212 
	C196.700577,54.477291 191.513458,52.774731 186.813400,52.988796 
	C186.192215,53.017094 185.506287,51.624275 184.850342,50.889622 
	C185.612640,50.269417 186.301559,49.261349 187.150803,49.100666 
	C189.854782,48.589043 192.618423,48.392738 195.776062,48.048264 
z"/>
<path fill="#659ECD" opacity="1.000000" stroke="none" 
	d="
M171.793594,50.891853 
	C174.931931,50.612640 178.070267,50.333420 181.545349,50.021862 
	C178.573227,54.738354 172.956604,54.288776 168.279236,55.814728 
	C166.033234,56.547474 163.380737,56.034199 160.773865,55.796692 
	C163.199112,54.196075 167.409317,55.655018 168.422913,51.056713 
	C169.796219,50.970505 170.794907,50.931179 171.793594,50.891853 
z"/>
<path fill="#64AADB" opacity="1.000000" stroke="none" 
	d="
M168.048279,51.103600 
	C167.409317,55.655018 163.199112,54.196075 160.325165,55.697472 
	C159.567139,55.961288 159.119354,56.035812 158.120453,55.869324 
	C156.720444,55.743092 155.871552,55.857872 155.022644,55.972652 
	C154.625381,56.089676 154.228119,56.206703 153.479828,55.941711 
	C153.086166,54.709850 153.043518,53.860012 153.343307,52.785126 
	C158.473267,52.074589 163.260773,51.589092 168.048279,51.103600 
z"/>
<path fill="#5A93CF" opacity="1.000000" stroke="none" 
	d="
M153.000854,53.010170 
	C153.043518,53.860012 153.086166,54.709850 153.171875,55.982716 
	C153.214935,56.405739 153.330124,56.755566 152.875137,56.879799 
	C150.609192,57.017223 148.798218,57.030411 146.987259,57.043602 
	C145.608017,57.009331 144.228775,56.975056 142.436783,57.005390 
	C141.799683,56.783474 141.575333,56.496952 141.288666,55.749290 
	C143.132233,54.268124 145.038086,53.248104 147.329941,52.219917 
	C149.477570,52.477898 151.239212,52.744034 153.000854,53.010170 
z"/>
<path fill="#5781B0" opacity="1.000000" stroke="none" 
	d="
M147.003815,57.408810 
	C148.798218,57.030411 150.609192,57.017223 152.794342,57.045280 
	C151.119141,57.315693 149.069763,57.544857 147.003815,57.408810 
z"/>
<path fill="#659ECD" opacity="1.000000" stroke="none" 
	d="
M155.383331,56.093014 
	C155.871552,55.857872 156.720444,55.743092 157.784073,55.813473 
	C157.247208,56.070217 156.495621,56.141796 155.383331,56.093014 
z"/>
<path fill="#9AE1F9" opacity="1.000000" stroke="none" 
	d="
M52.148491,13.372525 
	C52.667316,13.017800 53.225090,12.800904 53.640820,12.958561 
	C55.366920,13.613144 57.081818,14.323208 58.692795,15.209308 
	C58.831001,15.285326 58.174923,16.805393 57.887817,17.654650 
	C56.231964,16.828415 54.576115,16.002180 52.615105,15.042371 
	C52.247341,14.500065 52.184731,14.091334 52.148491,13.372525 
z"/>
<path fill="#70D0FA" opacity="1.000000" stroke="none" 
	d="
M153.343307,52.785126 
	C151.239212,52.744034 149.477570,52.477898 147.060272,51.958862 
	C144.922134,51.458820 143.439636,51.211674 141.968536,50.593491 
	C141.993378,49.478664 142.006790,48.734886 142.373474,47.990105 
	C143.814072,47.659149 144.901382,47.329197 146.322784,47.013939 
	C147.102325,47.047546 147.547806,47.066456 148.018585,47.234947 
	C148.203659,47.497814 148.363434,47.611107 148.523209,47.724396 
	C148.374161,47.493004 148.225128,47.261604 148.083282,46.729897 
	C148.090790,46.031307 148.091125,45.633022 148.091446,45.234737 
	C148.482925,45.234310 148.874390,45.233883 149.586258,45.457718 
	C149.906647,45.681980 149.978806,46.101837 150.051147,46.333244 
	C150.737625,46.734108 151.351746,46.903568 152.413269,47.069592 
	C154.649277,46.979675 156.437881,46.893192 158.398895,46.705273 
	C158.790329,46.439663 158.967148,46.238403 159.354004,46.014030 
	C159.773163,46.006207 159.940125,45.984417 160.107086,45.962631 
	C162.763870,45.998363 165.420654,46.034096 168.503265,46.191860 
	C169.731812,47.701195 170.534531,49.088493 171.565430,50.683823 
	C170.794907,50.931179 169.796219,50.970505 168.422913,51.056709 
	C163.260773,51.589092 158.473267,52.074589 153.343307,52.785126 
z"/>
<path fill="#6BB0DF" opacity="1.000000" stroke="none" 
	d="
M160.110046,45.682121 
	C159.940125,45.984417 159.773163,46.006207 159.189621,46.131435 
	C158.557159,46.393276 158.374969,46.583889 158.226486,46.806709 
	C156.437881,46.893192 154.649277,46.979675 152.217438,46.860382 
	C151.042389,46.470352 150.510605,46.286095 149.978806,46.101837 
	C149.978806,46.101837 149.906647,45.681980 149.879517,45.472771 
	C151.900589,44.933426 153.948776,44.603291 156.365417,44.197525 
	C157.470963,44.252987 158.208069,44.384083 159.317001,44.439301 
	C159.830215,44.709480 159.971603,45.055546 160.110046,45.682121 
z"/>
<path fill="#070913" opacity="1.000000" stroke="none" 
	d="
M37.648766,77.008789 
	C39.372189,78.753647 40.829174,80.420364 42.024483,82.257355 
	C43.067654,83.860542 43.815994,85.655586 44.864788,87.681908 
	C44.209553,88.676956 43.384125,89.355965 42.211555,90.105072 
	C39.504143,88.831703 37.143871,87.488228 34.432190,85.590820 
	C34.034473,83.377831 33.988159,81.718788 33.941841,80.059746 
	C34.251652,79.254532 34.561462,78.449318 34.930637,77.325935 
	C35.749550,77.006721 36.509098,77.005676 37.648766,77.008789 
z"/>
<path fill="#040404" opacity="1.000000" stroke="none" 
	d="
M50.922260,61.020657 
	C51.147617,61.844238 51.372978,62.667816 51.799416,63.743389 
	C53.031883,70.736710 52.947292,70.874458 48.082176,70.148064 
	C48.245884,68.210831 48.433289,66.264946 48.545742,64.314728 
	C48.559624,64.073982 48.174053,63.810196 47.647373,63.145218 
	C45.987236,64.354218 44.312828,65.573608 42.320053,66.896545 
	C41.557083,66.998810 41.112476,66.997520 40.271797,66.656960 
	C39.580353,65.201813 39.284985,64.085953 38.989613,62.970085 
	C41.160217,61.403027 43.330822,59.835968 45.904713,58.437500 
	C47.846085,59.410950 49.384174,60.215801 50.922260,61.020657 
z"/>
<path fill="#0C203D" opacity="1.000000" stroke="none" 
	d="
M54.994328,62.006210 
	C54.994328,62.006210 55.021862,61.582352 55.478973,61.299583 
	C58.982670,61.063446 62.029251,61.110085 65.075836,61.156723 
	C64.568123,61.694828 64.060410,62.232929 63.277775,62.857388 
	C61.295441,63.249744 59.588032,63.555752 57.300728,63.675278 
	C56.145336,62.994602 55.569832,62.500408 54.994328,62.006210 
z"/>
<path fill="#070913" opacity="1.000000" stroke="none" 
	d="
M46.997646,80.011642 
	C46.085068,79.528183 45.172489,79.044716 44.259914,78.561249 
	C44.725376,78.160339 45.190842,77.759430 45.840759,77.175140 
	C46.025215,76.991760 46.507759,76.993858 46.748913,76.993896 
	C47.219875,77.788055 47.449688,78.582176 47.572289,79.681290 
	C47.465073,79.986282 46.997646,80.011642 46.997646,80.011642 
z"/>
<path fill="#040613" opacity="1.000000" stroke="none" 
	d="
M54.803658,62.217102 
	C55.569832,62.500408 56.145336,62.994602 56.926826,63.686562 
	C56.256893,63.984428 55.380981,64.084526 54.250389,64.092560 
	C54.201469,63.476326 54.407227,62.952160 54.803658,62.217102 
z"/>
<path fill="#070913" opacity="1.000000" stroke="none" 
	d="
M34.993919,76.670181 
	C34.360668,76.727844 33.729145,76.446472 33.097622,76.165100 
	C33.546654,75.807854 33.995686,75.450607 34.714478,75.033920 
	C34.988041,75.426689 34.991848,75.878922 34.993919,76.670181 
z"/>
<path fill="#06080F" opacity="1.000000" stroke="none" 
	d="
M34.996159,72.779701 
	C34.241074,73.014633 33.492279,73.009399 32.368690,73.008713 
	C32.819729,72.663368 33.645561,72.313461 34.741989,72.011353 
	C35.012589,72.059143 35.002445,72.539536 34.996159,72.779701 
z"/>
<path fill="#091121" opacity="1.000000" stroke="none" 
	d="
M47.001717,80.327370 
	C46.997646,80.011642 47.465073,79.986282 47.697613,79.966461 
	C48.430336,80.103783 48.930519,80.260933 49.647690,80.563957 
	C49.787056,81.257973 49.709427,81.806114 49.513016,82.752365 
	C48.598083,82.314682 47.801933,81.478889 47.001717,80.327370 
z"/>
<path fill="#040404" opacity="1.000000" stroke="none" 
	d="
M82.971268,83.330994 
	C83.147766,84.175545 83.320244,85.440208 83.235031,86.909569 
	C82.973969,85.993210 82.970604,84.872154 82.971268,83.330994 
z"/>
<path fill="#64AADB" opacity="1.000000" stroke="none" 
	d="
M96.380714,60.896072 
	C94.430374,60.391872 92.876343,59.366722 91.318604,59.361046 
	C87.551796,59.347317 83.783249,59.809242 80.176392,59.455032 
	C82.236000,57.231617 84.134613,55.632591 86.359909,54.012802 
	C87.123611,53.989620 87.560616,53.987202 88.164299,54.339165 
	C89.996994,55.140606 91.672951,56.003048 93.327347,55.963512 
	C100.885971,55.782898 108.438545,55.349255 116.271713,55.067909 
	C117.034065,55.413582 117.518005,55.697868 118.001938,55.982159 
	C113.619873,56.969814 109.233337,57.938210 104.858185,58.955574 
	C103.327553,59.311497 101.824951,59.787975 100.126961,60.537251 
	C98.888023,60.856323 97.831680,60.847549 96.380714,60.896072 
z"/>
<path fill="#64AADB" opacity="1.000000" stroke="none" 
	d="
M141.957138,50.964531 
	C143.439636,51.211674 144.922134,51.458820 146.674286,51.967022 
	C145.038086,53.248104 143.132233,54.268124 141.075165,55.576775 
	C136.559082,55.908028 132.194199,55.950649 127.501694,55.666004 
	C127.807373,54.264507 128.440689,53.190281 129.461273,52.089867 
	C130.888092,52.032593 131.927612,52.001503 133.284607,52.196625 
	C136.094467,51.988800 138.586868,51.554764 141.299438,51.085522 
	C141.519592,51.050316 141.957138,50.964531 141.957138,50.964531 
z"/>
<path fill="#6CC3F0" opacity="1.000000" stroke="none" 
	d="
M129.073990,52.116055 
	C128.440689,53.190281 127.807373,54.264507 127.069534,55.631897 
	C124.276665,55.948914 121.588310,55.972767 118.450951,55.989388 
	C117.518005,55.697868 117.034065,55.413582 116.143730,54.778915 
	C115.494789,53.627762 115.252251,52.826992 115.423065,52.011101 
	C117.214981,51.982056 118.593544,51.968136 120.406464,51.974953 
	C122.577248,51.939781 124.313683,51.883873 126.428619,51.850201 
	C127.562744,51.953644 128.318375,52.034847 129.073990,52.116055 
z"/>
<path fill="#75A4C2" opacity="1.000000" stroke="none" 
	d="
M65.479004,61.096287 
	C62.029251,61.110085 58.982670,61.063446 55.491463,61.087570 
	C55.149601,59.834785 55.252361,58.511242 56.035107,57.077682 
	C57.460716,56.975742 58.206341,56.983810 59.280277,57.250381 
	C63.356159,57.635330 67.103729,57.761772 71.265778,57.933228 
	C73.464615,58.386181 75.248970,58.794109 77.033318,59.202042 
	C77.042015,59.590164 77.050713,59.978291 77.004990,60.656334 
	C76.523056,60.980930 76.095543,61.015606 74.938370,60.974892 
	C72.794411,60.972473 71.380104,61.045437 69.965805,61.118401 
	C68.604591,61.090885 67.243385,61.063366 65.479004,61.096287 
z"/>
<path fill="#0C203D" opacity="1.000000" stroke="none" 
	d="
M70.254135,61.292946 
	C71.380104,61.045437 72.794411,60.972473 74.619156,61.017593 
	C73.533890,61.246284 72.038177,61.356888 70.254135,61.292946 
z"/>
<path fill="#78CCF0" opacity="1.000000" stroke="none" 
	d="
M77.386551,59.249119 
	C75.248970,58.794109 73.464615,58.386181 71.394089,57.656376 
	C71.738342,56.854061 72.368782,56.373623 73.407616,55.903606 
	C77.888412,55.287209 81.960823,54.660389 86.033226,54.033562 
	C84.134613,55.632591 82.236000,57.231617 80.101883,59.124710 
	C79.157516,59.377914 78.448654,59.337055 77.386551,59.249119 
z"/>
<path fill="#3A4353" opacity="1.000000" stroke="none" 
	d="
M23.971128,43.988518 
	C23.947645,47.705807 23.924162,51.423096 23.902367,55.553730 
	C19.714045,55.353752 15.223346,55.554848 14.739120,49.336945 
	C14.440703,45.505016 15.466597,44.049614 19.270899,44.295963 
	C20.615799,44.383049 22.000792,43.851028 23.640915,43.590225 
	C23.914351,43.578785 23.971128,43.988518 23.971128,43.988518 
z"/>
<path fill="#391A24" opacity="1.000000" stroke="none" 
	d="
M24.322571,44.000999 
	C23.971128,43.988518 23.914351,43.578785 23.887249,43.374958 
	C24.398724,42.560486 24.937302,41.949837 25.737045,41.184490 
	C26.016893,41.792168 26.035574,42.554546 26.052990,43.687103 
	C26.051722,44.057278 26.075800,44.118626 26.075800,44.118626 
	C25.608538,44.083580 25.141275,44.048531 24.322571,44.000999 
z"/>
<path fill="#06050B" opacity="1.000000" stroke="none" 
	d="
M38.576191,62.986221 
	C39.284985,64.085953 39.580353,65.201813 39.938347,66.657852 
	C36.617912,68.427834 35.324821,66.275414 34.162888,63.358894 
	C35.407314,63.032841 36.785042,63.017597 38.576191,62.986221 
z"/>
<path fill="#293144" opacity="1.000000" stroke="none" 
	d="
M33.572556,80.046516 
	C33.988159,81.718788 34.034473,83.377831 34.127762,85.446320 
	C32.595154,86.494637 31.015574,87.133507 29.219810,87.874054 
	C26.949087,84.752831 28.601635,81.627502 33.572556,80.046516 
z"/>
<path fill="#74160E" opacity="1.000000" stroke="none" 
	d="
M26.082718,44.067764 
	C27.100721,44.013832 28.087729,43.949413 29.574394,44.057755 
	C30.284101,44.490246 30.494150,44.749973 30.740778,45.289608 
	C30.752756,45.945198 30.728157,46.320877 30.417095,46.896667 
	C28.585178,49.132103 28.072222,50.924633 31.392994,52.006783 
	C31.731733,52.373569 31.886999,52.608826 31.810873,53.113712 
	C31.649923,57.330669 33.499569,58.518764 37.447571,57.044334 
	C38.507046,57.501163 39.259529,57.876499 40.012012,58.251835 
	C34.385029,62.282074 26.988596,58.149944 26.106792,50.408119 
	C25.903347,48.621979 26.098841,46.790398 26.093277,44.549175 
	C26.075800,44.118626 26.051722,44.057278 26.082718,44.067764 
z"/>
<path fill="#06050B" opacity="1.000000" stroke="none" 
	d="
M51.037270,60.786346 
	C49.384174,60.215801 47.846085,59.410950 46.144516,58.297386 
	C46.329487,55.271366 46.677940,52.554058 47.059341,49.410591 
	C50.130424,47.917252 52.190048,50.221287 51.679298,53.961746 
	C51.381607,56.141850 51.320072,58.354198 51.037270,60.786346 
z"/>
<path fill="#D05448" opacity="1.000000" stroke="none" 
	d="
M40.347958,58.106236 
	C39.259529,57.876499 38.507046,57.501163 37.551315,56.750565 
	C41.893578,49.313210 41.302608,46.046677 35.268482,43.574642 
	C37.427746,39.955181 39.867649,43.445210 42.028118,42.898663 
	C42.028118,42.898663 42.062347,42.940289 42.083740,43.352470 
	C42.501312,45.895157 42.897495,48.025658 43.293678,50.156158 
	C43.252277,50.572670 43.210880,50.989182 42.784973,51.858688 
	C42.309238,52.910042 42.218014,53.508408 42.126785,54.106770 
	C41.645824,55.391392 41.164864,56.676014 40.347958,58.106236 
z"/>
<path fill="#862522" opacity="1.000000" stroke="none" 
	d="
M41.961693,42.557030 
	C39.867649,43.445210 37.427746,39.955181 35.038219,43.721802 
	C33.309254,44.396957 32.006725,44.703331 30.704199,45.009701 
	C30.494150,44.749973 30.284101,44.490246 29.944456,44.012630 
	C32.483738,38.631306 38.421059,37.855083 41.961693,42.557030 
z"/>
<path fill="#862522" opacity="1.000000" stroke="none" 
	d="
M43.573753,49.974037 
	C42.897495,48.025658 42.501312,45.895157 42.107529,43.365128 
	C45.038525,44.641380 45.555508,46.933254 43.573753,49.974037 
z"/>
<path fill="#862522" opacity="1.000000" stroke="none" 
	d="
M42.350166,54.003830 
	C42.218014,53.508408 42.309238,52.910042 42.670319,52.151119 
	C42.817963,52.627335 42.695751,53.264114 42.350166,54.003830 
z"/>
<path fill="#D9F6EF" opacity="1.000000" stroke="none" 
	d="
M58.951965,56.991875 
	C58.206341,56.983810 57.460716,56.975742 56.343315,56.951057 
	C56.105125,55.691010 56.381218,54.443092 56.342228,53.205101 
	C56.264317,50.731762 56.013687,48.263863 56.073814,45.444355 
	C56.920181,44.935352 57.527115,44.775711 58.706726,44.334129 
	C63.515266,44.707409 67.751122,45.362633 71.992699,46.423519 
	C72.044792,47.916538 72.091171,49.003891 71.924355,50.380562 
	C70.136086,54.071659 67.588737,55.414848 63.766033,55.156883 
	C62.209702,55.051865 60.559471,56.338448 58.951965,56.991875 
z"/>
<path fill="#B0F4F2" opacity="1.000000" stroke="none" 
	d="
M71.986977,46.017853 
	C67.751122,45.362633 63.515266,44.707409 58.870544,44.051716 
	C58.345379,43.583290 58.229084,43.115337 58.059166,42.287056 
	C61.688057,41.652012 65.370567,41.377304 69.610497,41.467983 
	C71.490974,42.587811 72.815155,43.340302 74.136848,44.097118 
	C76.422150,45.405716 78.705910,46.716999 80.706696,48.123730 
	C77.611038,47.486153 74.799004,46.752003 71.986977,46.017853 
z"/>
<path fill="#90EFFC" opacity="1.000000" stroke="none" 
	d="
M119.972107,51.954216 
	C118.593544,51.968136 117.214981,51.982056 114.954590,51.995037 
	C108.720604,52.023491 103.368454,52.052883 97.742050,51.862717 
	C94.644165,49.763477 91.820549,47.883801 89.021667,45.786293 
	C89.046417,45.568462 89.099075,45.133183 89.099075,45.133183 
	C90.432777,45.169102 91.766472,45.205021 93.625298,45.488247 
	C94.744110,46.120369 95.337799,46.505184 96.054688,46.993271 
	C96.177895,47.096550 96.623299,47.113281 96.623299,47.113281 
	C96.623299,47.113281 96.937050,46.773331 97.096481,46.610199 
	C97.496346,46.259079 97.748924,46.089146 98.345528,45.949879 
	C99.120178,45.962330 99.562958,45.962166 100.412155,46.055927 
	C102.593399,46.426384 104.366211,46.716599 106.143417,46.976799 
	C110.764542,47.653397 115.387589,48.316814 120.009415,49.357082 
	C119.996674,50.470524 119.984390,51.212368 119.972107,51.954216 
z"/>
<path fill="#98EEF8" opacity="1.000000" stroke="none" 
	d="
M88.996925,46.004120 
	C91.820549,47.883801 94.644165,49.763477 97.409149,52.076317 
	C94.232887,53.001244 91.115257,53.493011 87.997627,53.984779 
	C87.560616,53.987202 87.123611,53.989620 86.359909,54.012802 
	C81.960823,54.660389 77.888412,55.287209 73.511017,55.556824 
	C74.874123,54.453648 76.560555,53.745644 78.205589,52.951847 
	C80.150490,52.013348 82.059647,51.000771 84.035461,49.854538 
	C83.726341,49.463127 83.366074,49.237484 82.793854,48.819229 
	C82.051376,48.426796 81.520851,48.226978 80.990318,48.027161 
	C78.705910,46.716999 76.422150,45.405716 74.136848,44.097118 
	C72.815155,43.340302 71.490974,42.587811 70.046898,41.504646 
	C75.464569,41.304722 81.168938,40.858692 86.058533,45.784794 
	C87.496872,45.962765 88.246902,45.983444 88.996925,46.004120 
z"/>
<path fill="#71C4F9" opacity="1.000000" stroke="none" 
	d="
M100.005737,45.962006 
	C99.562958,45.962166 99.120178,45.962330 98.206726,45.639679 
	C96.489838,44.881523 95.243622,44.446175 93.997414,44.010830 
	C93.348793,43.244431 92.700172,42.478031 92.018478,41.386292 
	C100.691376,41.711834 109.397346,42.362717 118.419540,43.278931 
	C118.485069,44.029289 118.234383,44.514320 117.517799,44.998356 
	C111.369843,45.318909 105.687790,45.640457 100.005737,45.962006 
z"/>
<path fill="#70CAED" opacity="1.000000" stroke="none" 
	d="
M93.976547,44.325142 
	C95.243622,44.446175 96.489838,44.881523 97.874847,45.627068 
	C97.748924,46.089146 97.496346,46.259079 96.845245,46.640968 
	C96.266884,46.853249 96.099182,46.871624 95.931488,46.889996 
	C95.337799,46.505184 94.744110,46.120369 94.025360,45.501297 
	C93.918755,45.057842 93.937210,44.848652 93.976547,44.325142 
z"/>
<path fill="#70CAED" opacity="1.000000" stroke="none" 
	d="
M89.021667,45.786293 
	C88.246902,45.983444 87.496872,45.962765 86.373161,45.911415 
	C86.878563,45.498310 87.757645,45.115879 88.867905,44.933315 
	C89.099075,45.133183 89.046417,45.568462 89.021667,45.786293 
z"/>
<path fill="#70CAED" opacity="1.000000" stroke="none" 
	d="
M128.999039,42.633785 
	C132.025696,42.814247 135.052353,42.994709 138.516998,43.532059 
	C138.991043,44.549255 139.027100,45.209564 138.715942,46.047089 
	C136.587540,46.467575 134.806320,46.710846 132.629700,46.879070 
	C128.481720,46.861637 124.729149,46.919254 120.985397,46.985573 
	C120.994232,46.994274 121.008591,47.009659 121.007645,46.732430 
	C121.001343,46.270451 120.996002,46.085705 120.990936,45.543171 
	C121.003426,44.471504 121.015640,43.757626 121.027847,43.043751 
	C121.480843,42.982319 121.933846,42.920887 122.715958,42.758068 
	C123.475204,42.691952 123.905319,42.727222 125.057022,42.824406 
	C126.852074,42.802139 127.925560,42.717960 128.999039,42.633785 
z"/>
<path fill="#6BB0DF" opacity="1.000000" stroke="none" 
	d="
M120.683395,43.022255 
	C121.015640,43.757626 121.003426,44.471504 120.658844,45.559731 
	C119.882912,45.936646 119.439362,45.939201 118.851471,45.760002 
	C118.493408,45.351025 118.252266,45.158062 117.983704,44.999352 
	C118.234383,44.514320 118.485069,44.029289 118.847519,43.297279 
	C119.419174,43.033787 119.879059,43.017269 120.683395,43.022255 
z"/>
<path fill="#6BB0DF" opacity="1.000000" stroke="none" 
	d="
M139.063141,45.869869 
	C139.027100,45.209564 138.991043,44.549255 138.924789,43.563049 
	C141.778732,43.706184 144.662888,44.175224 147.819244,44.939499 
	C148.091125,45.633022 148.090790,46.031307 148.055420,46.732956 
	C148.020370,47.036316 147.993271,47.085365 147.993271,47.085365 
	C147.547806,47.066456 147.102325,47.047546 146.039169,46.800434 
	C144.247070,46.411732 143.072678,46.251228 141.543808,46.058273 
	C140.480606,45.973835 139.771881,45.921852 139.063141,45.869869 
z"/>
<path fill="#598CC2" opacity="1.000000" stroke="none" 
	d="
M128.857040,42.380043 
	C127.925560,42.717960 126.852074,42.802139 125.380463,42.799793 
	C126.226570,42.517616 127.470802,42.321957 128.857040,42.380043 
z"/>
<path fill="#84E7FC" opacity="1.000000" stroke="none" 
	d="
M138.715942,46.047089 
	C139.771881,45.921852 140.480606,45.973835 141.563873,46.374222 
	C141.965668,47.145447 141.992950,47.568275 142.020218,47.991104 
	C142.006790,48.734886 141.993378,49.478664 141.968536,50.593491 
	C141.957138,50.964531 141.519592,51.050316 140.848694,51.051292 
	C137.788086,51.039925 135.398361,51.027576 133.005066,50.609844 
	C133.009369,49.121010 133.017227,48.037563 133.025085,46.954117 
	C134.806320,46.710846 136.587540,46.467575 138.715942,46.047089 
z"/>
<path fill="#70CAED" opacity="1.000000" stroke="none" 
	d="
M142.373505,47.990105 
	C141.992950,47.568275 141.965668,47.145447 141.918335,46.406670 
	C143.072678,46.251228 144.247070,46.411732 145.705078,46.785736 
	C144.901382,47.329197 143.814072,47.659149 142.373505,47.990105 
z"/>
<path fill="#70CAED" opacity="1.000000" stroke="none" 
	d="
M150.051147,46.333244 
	C150.510605,46.286095 151.042389,46.470352 151.770020,46.863819 
	C151.351746,46.903568 150.737625,46.734108 150.051147,46.333244 
z"/>
<path fill="#70CAED" opacity="1.000000" stroke="none" 
	d="
M148.048218,47.033260 
	C148.225128,47.261604 148.374161,47.493004 148.523209,47.724396 
	C148.363434,47.611107 148.203659,47.497814 148.018585,47.234943 
	C147.993271,47.085365 148.020370,47.036316 148.048218,47.033260 
z"/>
<path fill="#5B90BC" opacity="1.000000" stroke="none" 
	d="
M158.398895,46.705273 
	C158.374969,46.583889 158.557159,46.393276 158.937439,46.117466 
	C158.967148,46.238403 158.790329,46.439663 158.398895,46.705273 
z"/>
<path fill="#78CCF0" opacity="1.000000" stroke="none" 
	d="
M88.164299,54.339165 
	C91.115257,53.493011 94.232887,53.001244 97.683411,52.295876 
	C103.368454,52.052883 108.720604,52.023491 114.541229,52.010162 
	C115.252251,52.826992 115.494789,53.627762 115.865311,54.717529 
	C108.438545,55.349255 100.885971,55.782898 93.327347,55.963512 
	C91.672951,56.003048 89.996994,55.140606 88.164299,54.339165 
z"/>
<path fill="#8EEFFF" opacity="1.000000" stroke="none" 
	d="
M132.629700,46.879066 
	C133.017227,48.037563 133.009369,49.121010 132.986908,50.848236 
	C132.972290,51.492012 132.967148,51.970409 132.967148,51.970413 
	C131.927612,52.001503 130.888092,52.032593 129.461273,52.089867 
	C128.318375,52.034847 127.562744,51.953644 126.295914,51.566280 
	C124.210754,50.166500 122.636795,49.072872 121.037643,47.728962 
	C121.000504,47.311413 120.988541,47.144142 120.976570,46.976868 
	C124.729149,46.919254 128.481720,46.861637 132.629700,46.879066 
z"/>
<path fill="#6CC3F0" opacity="1.000000" stroke="none" 
	d="
M133.284607,52.196625 
	C132.967148,51.970409 132.972290,51.492012 132.990463,51.253620 
	C135.398361,51.027576 137.788086,51.039925 140.628540,51.086502 
	C138.586868,51.554764 136.094467,51.988800 133.284607,52.196625 
z"/>
<path fill="#82E1FB" opacity="1.000000" stroke="none" 
	d="
M121.062828,47.979248 
	C122.636795,49.072872 124.210754,50.166500 125.917412,51.544044 
	C124.313683,51.883873 122.577248,51.939781 120.406464,51.974953 
	C119.984390,51.212368 119.996674,50.470524 120.201996,49.208683 
	C120.642151,48.475296 120.864754,48.238815 121.062828,47.979248 
z"/>
<path fill="#ABE8F4" opacity="1.000000" stroke="none" 
	d="
M83.984306,50.020309 
	C82.059647,51.000771 80.150490,52.013348 78.205589,52.951847 
	C76.560555,53.745644 74.874123,54.453648 73.102615,55.546402 
	C72.368782,56.373623 71.738342,56.854061 70.979599,57.611359 
	C67.103729,57.761772 63.356159,57.635330 59.280277,57.250381 
	C60.559471,56.338448 62.209702,55.051865 63.766033,55.156883 
	C67.588737,55.414848 70.136086,54.071659 72.366348,50.365479 
	C76.337181,50.028069 79.652824,49.995068 83.222366,49.977814 
	C83.645599,50.002483 83.814949,50.011395 83.984306,50.020309 
z"/>
<path fill="#B92E19" opacity="1.000000" stroke="none" 
	d="
M30.740778,45.289608 
	C32.006725,44.703331 33.309254,44.396957 34.842045,43.943428 
	C41.302608,46.046677 41.893578,49.313210 37.244320,56.669075 
	C33.499569,58.518764 31.649923,57.330669 32.175816,53.074928 
	C33.769981,51.657585 34.806606,50.523067 35.843231,49.388554 
	C34.580338,48.607845 33.317440,47.827137 31.718628,46.951897 
	C31.156326,46.803764 30.929941,46.750160 30.703556,46.696560 
	C30.728157,46.320877 30.752756,45.945198 30.740778,45.289608 
z"/>
<path fill="#F78866" opacity="1.000000" stroke="none" 
	d="
M32.054546,47.046429 
	C33.317440,47.827137 34.580338,48.607845 35.843231,49.388554 
	C34.806606,50.523067 33.769981,51.657585 32.368416,52.830887 
	C31.886999,52.608826 31.731733,52.373569 31.398045,51.654549 
	C31.523792,49.778934 31.789171,48.412682 32.054546,47.046429 
z"/>
<path fill="#C34730" opacity="1.000000" stroke="none" 
	d="
M31.718628,46.951897 
	C31.789171,48.412682 31.523792,49.778934 31.253365,51.497421 
	C28.072222,50.924633 28.585178,49.132103 30.417095,46.896667 
	C30.929941,46.750160 31.156326,46.803764 31.718628,46.951897 
z"/>
<path fill="#BCFAF5" opacity="1.000000" stroke="none" 
	d="
M82.968475,49.962063 
	C79.652824,49.995068 76.337181,50.028069 72.579544,50.076157 
	C72.091171,49.003891 72.044792,47.916538 71.992699,46.423519 
	C74.799004,46.752003 77.611038,47.486153 80.706696,48.123734 
	C81.520851,48.226978 82.051376,48.426796 82.785538,49.056751 
	C82.989166,49.486885 82.968475,49.962063 82.968475,49.962063 
z"/>
<path fill="#70CAED" opacity="1.000000" stroke="none" 
	d="
M121.037643,47.728966 
	C120.864754,48.238815 120.642151,48.475296 120.202454,48.837090 
	C115.387589,48.316814 110.764542,47.653397 106.143417,46.976799 
	C104.366211,46.716599 102.593399,46.426384 100.412155,46.055923 
	C105.687790,45.640457 111.369843,45.318909 117.517799,44.998356 
	C118.252266,45.158062 118.493408,45.351025 119.058685,45.966034 
	C119.943024,46.572437 120.475807,46.791050 121.008591,47.009659 
	C121.008591,47.009659 120.994232,46.994274 120.985397,46.985573 
	C120.988541,47.144142 121.000504,47.311413 121.037643,47.728966 
z"/>
<path fill="#98EEF8" opacity="1.000000" stroke="none" 
	d="
M96.054688,46.993271 
	C96.099182,46.871624 96.266884,46.853249 96.685822,46.804100 
	C96.937050,46.773331 96.623299,47.113281 96.623299,47.113281 
	C96.623299,47.113281 96.177895,47.096550 96.054688,46.993271 
z"/>
<path fill="#B0F4F2" opacity="1.000000" stroke="none" 
	d="
M83.222366,49.977814 
	C82.968475,49.962063 82.989166,49.486885 82.997482,49.249363 
	C83.366074,49.237484 83.726341,49.463127 84.035461,49.854538 
	C83.814949,50.011395 83.645599,50.002483 83.222366,49.977814 
z"/>
<path fill="#82E1FB" opacity="1.000000" stroke="none" 
	d="
M121.007645,46.732430 
	C120.475807,46.791050 119.943024,46.572437 119.203026,46.147789 
	C119.439362,45.939201 119.882912,45.936646 120.658562,45.917526 
	C120.996002,46.085705 121.001343,46.270451 121.007645,46.732430 
z"/>
</svg>