<svg version="1.1" id="Layer_1" xmlns="http://www.w3.org/2000/svg" xmlns:xlink="http://www.w3.org/1999/xlink" x="0px" y="0px"
	 width="100%" viewBox="0 0 230 136" enable-background="new 0 0 230 136" xml:space="preserve">

<path fill="#040409" opacity="1.000000" stroke="none" 
	d="
M220.000000,59.000153 
	C223.403580,59.997341 226.807175,60.994530 230.605377,61.995857 
	C231.000000,71.354225 231.000000,80.708458 231.000000,90.531342 
	C228.533386,90.895447 226.034943,90.505501 223.610184,90.776070 
	C221.648163,90.995003 219.521271,91.643906 217.921082,92.755196 
	C215.466400,94.459900 212.920486,96.415680 211.342819,98.863907 
	C210.321548,100.448708 210.528580,103.188057 210.945572,105.256783 
	C211.684509,108.922752 212.787354,112.422195 208.321167,114.531937 
	C208.621811,109.970825 209.897919,105.576241 205.983917,101.644669 
	C205.970108,100.453705 205.952011,99.660622 205.944763,98.556618 
	C205.983002,97.830643 206.010376,97.415581 206.377960,96.941223 
	C208.139084,95.994316 209.559998,95.106705 211.268127,94.107895 
	C211.144531,93.163269 210.781036,91.646408 210.314819,91.614151 
	C208.243057,91.470818 206.141891,91.752800 203.948135,91.624680 
	C205.210037,90.836617 206.540451,90.173820 207.947723,89.801270 
	C210.613190,89.095650 213.322739,88.556580 216.379471,87.940399 
	C221.796860,86.992699 224.178070,83.286575 226.016235,78.570801 
	C225.735352,75.429192 225.436447,72.716042 225.225098,69.778809 
	C224.583435,68.971230 223.854187,68.387741 223.110474,67.461929 
	C222.050903,65.452751 221.005814,63.785892 219.969604,61.729229 
	C219.985672,60.559669 219.992844,59.779911 220.000000,59.000153 
z"/>
<path fill="#080D1A" opacity="1.000000" stroke="none" 
	d="
M190.008240,117.979294 
	C186.266602,118.852272 182.524979,119.725266 177.910706,120.801857 
	C170.436188,113.493713 157.525620,116.317123 147.955536,109.509270 
	C156.893021,105.728737 164.610870,102.464096 172.740372,99.378204 
	C174.493530,100.143417 175.835037,100.729881 177.300018,101.507324 
	C177.551559,102.290268 177.679657,102.882256 177.469757,103.667519 
	C171.251617,105.757233 165.371506,107.653664 158.845276,109.758476 
	C160.245773,110.142242 160.877365,110.315308 161.720337,110.770294 
	C164.022583,111.488907 166.113449,111.925598 168.578827,112.523277 
	C170.308853,112.784149 171.664337,112.884033 173.050232,113.328217 
	C173.754471,114.028244 174.428314,114.383972 175.384979,114.805069 
	C176.040756,114.973648 176.413742,115.076851 176.936432,115.451294 
	C177.685638,115.784737 178.285095,115.846962 179.221130,115.908508 
	C180.230347,115.882080 180.902969,115.856323 181.879929,115.829788 
	C182.405380,115.192299 182.626495,114.555580 182.880554,113.599831 
	C182.947098,112.854515 182.980682,112.428223 183.317322,111.910431 
	C186.149734,109.281914 183.715546,109.343597 182.137329,108.622650 
	C182.734039,106.586357 183.318787,104.890816 183.930542,102.903603 
	C183.966827,102.416855 183.976105,102.221794 184.444534,102.022690 
	C188.276779,102.025864 191.649887,102.033081 195.031982,102.382797 
	C195.952972,103.807037 196.864975,104.888786 197.779984,106.240166 
	C197.781387,106.689552 197.779770,106.869316 197.620972,107.178146 
	C197.269409,107.503113 197.113388,107.725868 197.001831,108.232437 
	C197.003571,108.660675 196.999176,108.831970 196.778000,109.226044 
	C196.420685,110.046852 196.280182,110.644890 196.125320,111.579910 
	C195.441620,113.288132 194.772263,114.659355 193.729645,116.024765 
	C192.240341,116.672401 191.124298,117.325851 190.008240,117.979294 
z"/>
<path fill="#05050B" opacity="1.000000" stroke="none" 
	d="
M177.176559,101.316353 
	C175.835037,100.729881 174.493530,100.143417 173.073959,99.289833 
	C173.026672,92.964249 168.214188,93.532745 164.484558,93.084808 
	C159.475311,92.483185 154.399170,91.996796 149.368256,92.122337 
	C142.114182,92.303352 134.877823,93.124130 127.628212,93.581635 
	C123.843483,93.820473 119.525185,95.772186 117.487183,90.390488 
	C121.609818,90.308716 125.633690,93.188896 129.474457,89.014374 
	C133.951202,88.992409 137.966324,88.980125 142.198700,89.174057 
	C143.282578,88.969170 144.149231,88.558083 145.297882,88.025047 
	C146.041626,87.543823 146.503372,87.184540 147.204803,86.917023 
	C147.606750,87.063087 147.769012,87.117393 148.106293,87.463760 
	C151.182205,87.893425 154.083115,88.031006 157.142502,88.499222 
	C160.957413,89.548035 164.641800,90.943672 168.262421,90.794281 
	C171.898788,90.644241 175.487381,89.002220 179.032608,87.821014 
	C179.241348,87.751465 178.876297,85.959801 178.977585,84.784286 
	C179.219681,84.022980 179.455856,83.367332 179.259323,82.889740 
	C178.973785,82.195892 178.376099,81.630501 178.258835,81.056519 
	C180.105728,81.049339 181.605301,80.995941 183.431198,81.039040 
	C186.232880,86.960426 190.755814,89.701294 196.966339,90.166245 
	C196.969879,90.603767 196.971161,90.778770 196.609375,90.975357 
	C195.154037,91.666039 194.061798,92.335136 192.571655,93.004517 
	C190.734344,93.905937 189.132477,94.628036 187.894409,95.751167 
	C186.139389,97.343277 184.652496,99.230949 182.707520,100.975006 
	C181.906769,100.946907 181.449524,100.936119 180.808716,100.765709 
	C180.073212,100.769035 179.521255,100.931984 178.667374,101.106277 
	C177.969147,101.183868 177.572845,101.250114 177.176559,101.316353 
M182.466949,86.491867 
	C182.466949,86.491867 182.511749,86.473633 182.466949,86.491867 
z"/>
<path fill="#0A101C" opacity="1.000000" stroke="none" 
	d="
M175.990707,50.971413 
	C174.933441,50.973598 173.876160,50.975784 172.306122,50.652298 
	C165.196625,47.888680 158.599884,45.450726 152.003143,43.012772 
	C146.167969,43.883125 140.353928,45.026424 134.486542,45.480431 
	C132.341858,45.646389 130.070526,44.175465 127.536888,43.346565 
	C131.962677,41.327412 135.126770,39.251884 138.579361,38.498501 
	C141.619919,37.835033 144.982056,38.742722 148.203964,38.774284 
	C149.971588,38.791607 151.777481,38.585045 153.501877,38.195255 
	C154.948624,37.868225 156.295258,36.671005 157.698273,36.649609 
	C164.967606,36.538742 171.409164,34.763454 177.135910,29.847021 
	C178.682968,28.518862 182.217331,29.505541 184.698181,29.984661 
	C183.243820,34.144863 185.859055,33.853619 188.010849,34.261276 
	C188.010712,34.500626 188.015732,34.979305 187.700867,34.986465 
	C186.594070,35.669216 185.802170,36.344814 185.006531,37.010002 
	C185.002792,36.999588 185.016663,37.007931 184.796738,37.011826 
	C184.576813,37.015724 184.137131,37.030731 183.910614,37.004181 
	C183.684082,36.977631 183.231171,36.923378 182.971832,36.902031 
	C182.342850,36.037941 181.973206,35.195202 181.522202,34.166996 
	C180.642578,34.471931 179.730728,34.788048 178.496185,35.216797 
	C174.448090,36.671253 170.722656,38.013081 166.682220,39.263500 
	C164.157333,39.949703 161.947479,40.727318 159.737640,41.504929 
	C159.901886,41.861885 160.066147,42.218845 160.230408,42.575802 
	C164.183334,43.654255 168.136261,44.732704 172.131256,45.975063 
	C172.471039,46.213554 172.768768,46.288132 173.185806,46.186852 
	C173.305130,46.010990 172.968414,45.751595 173.248901,45.987423 
	C174.007141,46.325111 174.484924,46.426975 175.017670,46.815979 
	C175.852753,47.945438 176.632858,48.787754 177.149780,49.825123 
	C176.587967,50.337254 176.289337,50.654331 175.990707,50.971413 
z"/>
<path fill="#05040C" opacity="1.000000" stroke="none" 
	d="
M219.624344,58.933220 
	C219.992844,59.779911 219.985672,60.559669 219.547485,61.699600 
	C215.435089,61.729553 211.753754,61.399338 207.717148,61.049377 
	C206.887650,61.038517 206.413406,61.047398 205.577393,61.062294 
	C204.117096,61.417206 203.018585,61.766106 201.480423,62.081818 
	C198.363190,62.062752 195.685593,62.076870 192.792770,61.872925 
	C191.720825,62.106873 190.864105,62.558887 189.776901,63.030128 
	C189.546417,63.049355 189.084610,63.075478 188.726929,63.061684 
	C187.245499,63.368740 186.121765,63.689590 184.572510,64.005585 
	C182.166901,63.994202 180.186829,63.987686 178.071045,63.729942 
	C177.625244,63.261814 177.315125,63.044918 176.840332,62.478867 
	C174.656845,61.752914 172.652512,61.217278 170.616257,61.031712 
	C166.084579,60.618736 161.536942,60.380894 156.995819,60.071678 
	C162.640472,58.395058 168.177444,56.397278 174.272934,58.458912 
	C176.348282,59.160843 178.946503,59.131382 181.097687,58.597527 
	C184.087891,57.855453 185.084839,56.103069 181.343658,53.691185 
	C180.999527,52.239616 180.999069,51.235657 181.335175,50.130066 
	C182.174911,49.022739 182.678070,48.017044 183.358734,47.009388 
	C183.536224,47.007427 183.891098,46.997105 183.938721,47.207329 
	C184.158295,47.619396 184.330261,47.821243 184.502243,48.023087 
	C184.701248,47.679775 184.900269,47.336464 185.284302,47.158546 
	C186.302139,47.552460 187.134964,47.780991 188.293121,48.240295 
	C194.057053,48.637272 199.495636,48.803471 205.168610,49.239830 
	C205.599152,50.678619 205.795288,51.847248 205.658173,53.012199 
	C204.880280,53.011032 204.435638,53.013546 203.560791,53.009361 
	C198.710800,53.971687 194.291016,54.940704 189.649765,55.958279 
	C193.559860,60.491051 197.477859,61.230553 204.351669,59.010796 
	C205.119644,59.005661 205.558609,59.002880 205.998779,59.000084 
	C206.000000,59.000065 206.000854,59.002163 206.106918,59.116924 
	C206.212982,59.231686 206.647369,59.293110 206.647369,59.293110 
	C206.647369,59.293110 207.013000,59.020321 207.342819,59.022736 
	C208.112244,59.027164 208.551849,59.029179 209.265579,59.247532 
	C211.018845,58.980381 212.497971,58.496887 213.977112,58.013397 
	C215.734299,58.297691 217.491501,58.581989 219.624344,58.933220 
z"/>
<path fill="#07122B" opacity="1.000000" stroke="none" 
	d="
M22.919641,74.940681 
	C28.700714,71.099884 35.175346,69.255562 41.940693,70.245338 
	C48.241119,71.167084 54.072701,69.073914 59.936268,68.101646 
	C65.531845,67.173805 70.393707,65.204544 76.640144,66.484001 
	C82.452095,67.674469 88.997299,65.288902 95.218925,64.471741 
	C96.203056,64.342476 97.183090,64.181946 98.892654,64.108780 
	C100.114067,64.815247 100.607826,65.448807 101.125938,66.075378 
	C101.150291,66.068390 101.147270,66.120247 100.825272,66.091125 
	C99.690636,66.262779 98.878006,66.463547 97.695320,66.757950 
	C92.922012,67.344307 88.480728,67.622559 84.126961,68.394432 
	C80.320511,69.069252 76.626526,70.358208 72.854431,71.256485 
	C71.248734,71.638855 69.570618,71.717087 67.462502,71.955994 
	C57.890465,72.299370 48.780437,72.598091 39.673222,72.966393 
	C38.384991,73.018494 37.113869,73.430504 35.828918,73.639565 
	C32.908108,74.114807 29.983622,74.567421 26.647808,75.020729 
	C25.129869,74.988380 24.024755,74.964531 22.919641,74.940681 
z"/>
<path fill="#6594C4" opacity="1.000000" stroke="none" 
	d="
M27.060631,75.029236 
	C29.983622,74.567421 32.908108,74.114807 35.828918,73.639565 
	C37.113869,73.430504 38.384991,73.018494 39.673222,72.966393 
	C48.780437,72.598091 57.890465,72.299370 67.518631,72.251480 
	C68.323563,73.272766 68.609459,74.021019 68.594437,74.822800 
	C67.890900,74.941231 67.488281,75.006126 66.685753,75.041519 
	C62.464428,74.766701 62.957470,77.412888 62.705368,79.789978 
	C61.152847,79.725677 59.967903,79.677429 58.440475,79.591400 
	C57.408588,79.565483 56.719185,79.577347 55.819626,79.464432 
	C55.248047,79.297424 54.963764,79.425896 54.652901,79.759644 
	C54.549179,79.794212 54.579056,80.010826 54.579056,80.010826 
	C53.958225,80.005043 53.337391,79.999260 52.066338,79.946259 
	C47.240013,79.494209 43.063915,79.089363 38.887814,78.684517 
	C38.832165,79.297119 38.776512,79.909721 38.720863,80.522324 
	C40.189011,80.594093 41.657162,80.665871 43.117130,81.062134 
	C42.755249,81.919014 42.401550,82.451401 42.022694,82.975121 
	C41.997540,82.966446 41.977962,83.016228 41.565262,83.025620 
	C38.450966,83.128067 35.902367,83.162987 34.801670,79.797684 
	C34.539536,78.996223 32.977669,78.304619 31.925444,78.145462 
	C30.004408,77.854897 28.017496,77.999840 26.048588,77.642174 
	C26.379618,76.557220 26.720125,75.793236 27.060631,75.029236 
z"/>
<path fill="#07122B" opacity="1.000000" stroke="none" 
	d="
M156.586929,60.136356 
	C161.536942,60.380894 166.084579,60.618736 170.616257,61.031712 
	C172.652512,61.217278 174.656845,61.752914 176.466400,62.568707 
	C171.176834,63.120461 166.088608,63.105740 161.021072,63.422302 
	C159.465851,63.519459 157.967285,64.523674 156.003876,64.991638 
	C153.491104,64.603165 151.420120,64.134880 149.342850,64.105133 
	C142.777481,64.011139 136.209732,64.081291 129.308044,64.257919 
	C128.658096,64.811340 128.343018,65.194778 127.787933,65.902679 
	C125.914642,66.106583 123.764046,66.605797 122.742073,65.752808 
	C119.247330,62.835930 115.798157,64.170761 111.755753,65.086830 
	C110.621269,65.119995 109.972870,65.159073 109.287247,65.301422 
	C109.250031,65.404709 109.030502,65.408661 109.051392,65.059586 
	C109.715698,63.492531 110.359123,62.274548 111.002541,61.056568 
	C114.551010,60.676250 118.097992,59.989273 121.648224,59.972034 
	C133.157516,59.916157 144.668015,60.105892 156.586929,60.136356 
z"/>
<path fill="#050F27" opacity="1.000000" stroke="none" 
	d="
M56.029781,79.589218 
	C56.719185,79.577347 57.408588,79.565483 58.473457,79.836655 
	C58.882248,80.612228 58.915569,81.104774 58.627525,81.617447 
	C58.411011,82.394104 58.446484,83.794441 58.630714,83.814293 
	C65.737289,84.580078 72.857468,85.219597 80.315277,85.964722 
	C81.778183,86.312843 82.901657,86.572044 84.028465,87.103195 
	C84.153854,87.770706 84.275909,88.166260 84.397964,88.561821 
	C84.536827,88.519592 84.675682,88.477356 84.814537,88.435127 
	C84.612885,87.804489 84.411232,87.173859 84.212906,86.466202 
	C84.216240,86.389191 84.360886,86.335823 84.712021,86.568100 
	C86.879929,86.996864 88.698158,87.180969 90.512825,87.395340 
	C91.347961,87.493980 92.176094,87.651901 93.007401,87.782936 
	C91.763916,88.832558 90.465126,90.840057 89.286171,90.771988 
	C82.964577,90.407005 76.660614,89.616737 70.376244,88.780388 
	C67.495193,88.396973 64.694099,87.439217 61.818691,86.980408 
	C58.145042,86.394234 54.962158,85.425560 54.647213,80.462112 
	C54.579056,80.010826 54.549179,79.794212 54.868958,79.828278 
	C55.505154,79.882301 55.785503,79.791260 56.029781,79.589218 
z"/>
<path fill="#040409" opacity="1.000000" stroke="none" 
	d="
M205.991394,53.015877 
	C205.795288,51.847248 205.599152,50.678619 205.354736,48.946049 
	C205.734375,47.882404 206.160004,47.380733 206.590530,46.883301 
	C210.493210,42.374275 209.488052,35.880249 203.894928,34.539440 
	C198.848907,33.329788 193.324448,34.115948 188.010986,34.021923 
	C185.859055,33.853619 183.243820,34.144863 184.778717,30.270027 
	C191.087723,30.345634 197.184616,30.572241 203.258789,31.074051 
	C208.006332,31.466265 211.192368,35.163136 210.956589,39.866932 
	C210.825073,42.490417 210.686859,45.224464 209.861679,47.676476 
	C208.601425,51.421291 209.564346,54.400402 211.603638,57.610897 
	C210.902206,57.980782 210.459518,57.988029 209.876358,57.744186 
	C209.161926,57.003803 208.587982,56.514507 207.692963,55.928551 
	C206.911743,54.893223 206.451569,53.954552 205.991394,53.015877 
z"/>
<path fill="#101621" opacity="1.000000" stroke="none" 
	d="
M197.776962,105.970535 
	C196.864975,104.888786 195.952972,103.807037 195.403320,102.374542 
	C196.509705,102.017059 197.253723,102.010323 198.111038,102.148346 
	C198.448212,102.350693 198.672089,102.408279 198.895981,102.465866 
	C198.598740,102.309280 198.301514,102.152702 198.103607,101.681587 
	C200.795166,101.592216 203.387390,101.817375 205.979630,102.042534 
	C209.897919,105.576241 208.621811,109.970825 207.981461,114.620087 
	C204.161392,115.925919 200.363693,116.867989 196.308411,117.439995 
	C197.694946,116.041862 199.221878,114.499092 201.007523,114.092560 
	C204.761520,113.237862 205.207321,111.027985 204.649506,108.013123 
	C202.202728,107.285919 199.989853,106.628227 197.776962,105.970535 
z"/>
<path fill="#0A0A10" opacity="1.000000" stroke="none" 
	d="
M17.068823,78.946915 
	C14.176728,79.675667 11.315153,80.724815 8.380272,81.004379 
	C6.801061,81.154808 5.096146,79.985550 3.121275,79.298004 
	C4.799575,76.516289 6.034393,74.042747 7.728937,71.939629 
	C8.194180,71.362213 10.141128,71.595955 11.220796,71.981773 
	C13.055086,72.637238 14.740657,73.708878 16.756714,75.227791 
	C17.039408,76.882286 17.054115,77.914597 17.068823,78.946915 
z"/>
<path fill="#081127" opacity="1.000000" stroke="none" 
	d="
M26.058062,77.963135 
	C28.017496,77.999840 30.004408,77.854897 31.925444,78.145462 
	C32.977669,78.304619 34.539536,78.996223 34.801670,79.797684 
	C35.902367,83.162987 38.450966,83.128067 41.571899,83.337357 
	C41.995121,84.054100 41.999008,84.468483 42.002895,84.882874 
	C38.015087,85.130600 34.624401,84.558517 30.923586,82.100471 
	C27.661034,79.933510 22.764931,80.226021 18.312174,78.867348 
	C20.708805,78.189194 23.383432,78.076164 26.058062,77.963135 
z"/>
<path fill="#333F4E" opacity="1.000000" stroke="none" 
	d="
M197.779984,106.240166 
	C199.989853,106.628227 202.202728,107.285919 204.649506,108.013123 
	C205.207321,111.027985 204.761520,113.237862 201.007523,114.092560 
	C199.221878,114.499092 197.694946,116.041862 195.876556,117.357391 
	C195.395279,117.675591 195.087524,117.689163 194.488266,117.425896 
	C194.165985,116.787666 194.134430,116.409126 194.102875,116.030579 
	C194.772263,114.659355 195.441620,113.288132 196.371002,111.469971 
	C196.752304,110.349777 196.873550,109.676521 196.994797,109.003258 
	C196.999176,108.831970 197.003571,108.660675 197.183105,108.123718 
	C197.588379,107.575073 197.728333,107.338753 197.778152,107.049072 
	C197.779770,106.869316 197.781387,106.689552 197.779984,106.240166 
z"/>
<path fill="#03050C" opacity="1.000000" stroke="none" 
	d="
M152.183731,43.297440 
	C158.599884,45.450726 165.196625,47.888680 171.909668,50.653816 
	C164.467331,51.184681 158.098633,48.226303 152.183731,43.297440 
z"/>
<path fill="#040711" opacity="1.000000" stroke="none" 
	d="
M110.931671,60.763580 
	C110.359123,62.274548 109.715698,63.492531 108.709610,65.135635 
	C107.897865,65.440956 107.448792,65.321152 106.908272,65.052917 
	C106.545670,65.003761 106.274513,65.103043 105.647781,65.286087 
	C103.895325,65.607361 102.498459,65.844872 101.101585,66.082382 
	C100.607826,65.448807 100.114067,64.815247 99.313095,64.097313 
	C99.669189,62.386318 99.250076,59.457760 102.699844,61.340069 
	C103.329742,61.683762 104.796234,60.107815 105.926094,60.013859 
	C107.547127,59.879047 109.213676,60.291676 110.931671,60.763580 
z"/>
<path fill="#050F27" opacity="1.000000" stroke="none" 
	d="
M42.237839,85.092728 
	C41.999008,84.468483 41.995121,84.054100 41.984596,83.327972 
	C41.977962,83.016228 41.997540,82.966446 42.356552,82.979477 
	C43.608879,82.525742 44.502193,82.058975 45.395512,81.592216 
	C44.638779,81.307358 43.882042,81.022499 43.125309,80.737640 
	C41.657162,80.665871 40.189011,80.594093 38.720863,80.522324 
	C38.776512,79.909721 38.832165,79.297119 38.887814,78.684517 
	C43.063915,79.089363 47.240013,79.494209 51.765930,80.029083 
	C48.901424,81.873611 45.687107,83.588097 42.237839,85.092728 
z"/>
<path fill="#020818" opacity="1.000000" stroke="none" 
	d="
M112.133461,87.894699 
	C106.298355,88.016640 100.463249,88.138573 94.289642,87.730896 
	C93.966446,86.468849 93.981758,85.736397 94.322739,85.044540 
	C95.083977,85.124649 95.519539,85.164169 96.316734,85.402588 
	C100.125412,85.726105 103.593643,85.664261 107.010727,86.052612 
	C108.765427,86.252022 110.428810,87.254906 112.133461,87.894699 
z"/>
<path fill="#020818" opacity="1.000000" stroke="none" 
	d="
M129.012833,89.024071 
	C125.633690,93.188896 121.609818,90.308716 117.411217,90.026489 
	C116.379822,89.531647 115.762871,89.058189 115.261070,88.168381 
	C115.637497,87.600212 115.839241,87.390991 116.373505,87.166733 
	C118.504807,87.563293 120.244049,87.917480 122.325134,88.450653 
	C124.782265,88.761108 126.897552,88.892586 129.012833,89.024071 
z"/>
<path fill="#0E2346" opacity="1.000000" stroke="none" 
	d="
M93.997070,85.003952 
	C93.981758,85.736397 93.966446,86.468849 93.925385,87.565720 
	C93.899635,87.930145 93.449242,87.886444 93.228317,87.834686 
	C92.176094,87.651901 91.347961,87.493980 90.512825,87.395340 
	C88.698158,87.180969 86.879929,86.996864 84.894592,86.353485 
	C85.173080,85.323471 85.620125,84.740372 86.437103,84.120872 
	C89.201714,84.042984 91.596390,84.001488 94.011292,84.220879 
	C94.020042,84.655830 94.008553,84.829895 93.997070,85.003952 
z"/>
<path fill="#0E2346" opacity="1.000000" stroke="none" 
	d="
M115.981445,87.124359 
	C115.839241,87.390991 115.637497,87.600212 115.188538,87.867264 
	C114.282707,87.957085 113.564560,87.931648 112.489944,87.900452 
	C110.428810,87.254906 108.765427,86.252022 107.010727,86.052612 
	C103.593643,85.664261 100.125412,85.726105 96.770447,85.263672 
	C103.201660,84.972809 109.540794,85.019775 115.897842,85.409660 
	C115.937653,86.209846 115.959549,86.667099 115.981445,87.124359 
z"/>
<path fill="#0C162F" opacity="1.000000" stroke="none" 
	d="
M26.048588,77.642174 
	C23.383432,78.076164 20.708805,78.189194 18.021828,78.616196 
	C18.009478,78.930176 17.538651,78.952034 17.303738,78.949478 
	C17.054115,77.914597 17.039408,76.882286 17.021585,75.464386 
	C18.706207,75.029160 20.393942,74.979530 22.500660,74.935287 
	C24.024755,74.964531 25.129869,74.988380 26.647808,75.020737 
	C26.720125,75.793236 26.379618,76.557220 26.048588,77.642174 
z"/>
<path fill="#03050C" opacity="1.000000" stroke="none" 
	d="
M180.998596,50.231697 
	C180.999069,51.235657 180.999527,52.239616 181.000000,53.619934 
	C179.441254,53.171700 177.882507,52.347115 176.157227,51.246967 
	C176.289337,50.654331 176.587967,50.337254 177.497833,49.908794 
	C179.072235,49.942173 180.035416,50.086933 180.998596,50.231697 
z"/>
<path fill="#0F0E18" opacity="1.000000" stroke="none" 
	d="
M210.016830,57.995274 
	C210.459518,57.988029 210.902206,57.980782 211.676880,57.960220 
	C212.446381,57.964207 212.883865,57.981514 213.649231,58.006107 
	C212.497971,58.496887 211.018845,58.980381 209.403137,59.043419 
	C209.477478,58.366920 209.727570,58.157688 210.016830,57.995274 
z"/>
<path fill="#101621" opacity="1.000000" stroke="none" 
	d="
M193.729645,116.024765 
	C194.134430,116.409126 194.165985,116.787666 194.256073,117.442474 
	C193.164566,117.809288 192.014511,117.899834 190.436356,117.984833 
	C191.124298,117.325851 192.240341,116.672401 193.729645,116.024765 
z"/>
<path fill="#1F232F" opacity="1.000000" stroke="none" 
	d="
M208.072403,61.069122 
	C211.753754,61.399338 215.435089,61.729553 219.538574,62.089401 
	C221.005814,63.785892 222.050903,65.452751 223.067245,67.766190 
	C223.019089,68.615364 222.999695,68.817970 222.609924,68.946938 
	C219.485321,69.009407 216.688904,65.109604 213.648590,68.964386 
	C212.890106,68.964645 212.456558,68.960236 211.931015,68.643585 
	C209.905106,65.906105 208.170258,65.093567 206.738159,68.941986 
	C206.286911,68.967339 206.106461,68.978249 205.643738,68.808151 
	C204.214340,66.456436 203.067200,64.285721 201.920059,62.115005 
	C203.018585,61.766106 204.117096,61.417206 205.654892,61.315960 
	C206.753571,61.398781 207.412994,61.233952 208.072403,61.069122 
z"/>
<path fill="#03050C" opacity="1.000000" stroke="none" 
	d="
M197.997757,102.003593 
	C197.253723,102.010323 196.509705,102.017059 195.394318,102.032043 
	C191.649887,102.033081 188.276779,102.025864 184.255478,101.882019 
	C183.370193,101.532532 183.184784,101.281502 183.051025,100.992310 
	C184.652496,99.230949 186.139389,97.343277 187.894409,95.751167 
	C189.132477,94.628036 190.734344,93.905937 192.778961,93.206879 
	C193.937195,94.316879 194.309830,95.792984 195.074127,96.035660 
	C198.634781,97.166275 202.303696,97.955925 205.933899,98.867531 
	C205.952011,99.660622 205.970108,100.453705 205.983917,101.644669 
	C203.387390,101.817375 200.795166,101.592216 198.101471,101.683510 
	C198.000000,101.999962 197.997757,102.003593 197.997757,102.003593 
M190.806519,98.245049 
	C191.575333,98.331154 192.344147,98.417259 193.112946,98.503372 
	C193.117859,98.171852 193.122772,97.840332 193.127686,97.508804 
	C192.358765,97.572662 191.589828,97.636520 190.806519,98.245049 
z"/>
<path fill="#1C222F" opacity="1.000000" stroke="none" 
	d="
M205.944763,98.556618 
	C202.303696,97.955925 198.634781,97.166275 195.074127,96.035660 
	C194.309830,95.792984 193.937195,94.316879 193.176849,93.206604 
	C194.061798,92.335136 195.154037,91.666039 196.969345,91.142380 
	C199.812042,91.485542 201.931702,91.683266 204.051346,91.880997 
	C206.141891,91.752800 208.243057,91.470818 210.314819,91.614151 
	C210.781036,91.646408 211.144531,93.163269 210.899261,94.052246 
	C208.841385,95.072044 207.439575,96.036285 206.037750,97.000519 
	C206.010376,97.415581 205.983002,97.830643 205.944763,98.556618 
z"/>
<path fill="#1B1E2B" opacity="1.000000" stroke="none" 
	d="
M222.980316,69.020569 
	C222.999695,68.817970 223.019089,68.615364 223.081726,68.108505 
	C223.854187,68.387741 224.583435,68.971230 224.967667,70.044098 
	C225.081161,73.355408 225.539673,76.177330 225.998184,78.999260 
	C224.178070,83.286575 221.796860,86.992699 216.459503,87.631134 
	C216.782120,86.213120 217.390198,85.096458 218.016296,83.602325 
	C219.682968,78.490082 221.331635,73.755325 222.980316,69.020569 
z"/>
<path fill="#10101C" opacity="1.000000" stroke="none" 
	d="
M217.998276,83.979797 
	C217.390198,85.096458 216.782120,86.213120 216.093994,87.639046 
	C213.322739,88.556580 210.613190,89.095650 207.947723,89.801270 
	C206.540451,90.173820 205.210037,90.836617 203.948135,91.624680 
	C201.931702,91.683266 199.812042,91.485542 197.332428,91.120796 
	C196.971161,90.778770 196.969879,90.603767 197.254456,89.958740 
	C199.984802,88.645012 202.429276,87.801308 205.244720,86.824745 
	C208.406799,85.464493 211.197906,84.237099 214.261368,83.233551 
	C215.688568,83.631531 216.843430,83.805664 217.998276,83.979797 
z"/>
<path fill="#1F232F" opacity="1.000000" stroke="none" 
	d="
M226.016235,78.570801 
	C225.539673,76.177330 225.081161,73.355408 224.880096,70.268188 
	C225.436447,72.716042 225.735352,75.429192 226.016235,78.570801 
z"/>
<path fill="#03050C" opacity="1.000000" stroke="none" 
	d="
M206.377960,96.941231 
	C207.439575,96.036285 208.841385,95.072044 210.612061,94.163445 
	C209.559998,95.106705 208.139084,95.994316 206.377960,96.941231 
z"/>
<path fill="#95CBE3" opacity="1.000000" stroke="none" 
	d="
M173.019836,112.983910 
	C171.664337,112.884033 170.308853,112.784149 168.422760,112.211082 
	C165.764420,111.321388 163.636688,110.904884 161.508942,110.488373 
	C160.877365,110.315308 160.245773,110.142242 158.845276,109.758476 
	C165.371506,107.653664 171.251617,105.757233 177.681458,103.973152 
	C178.164871,107.722679 178.098557,111.359848 177.718231,115.024780 
	C177.198380,115.095039 176.992554,115.137550 176.786713,115.180061 
	C176.413742,115.076851 176.040756,114.973648 175.300491,114.512772 
	C174.295410,113.764717 173.657623,113.374313 173.019836,112.983910 
z"/>
<path fill="#294763" opacity="1.000000" stroke="none" 
	d="
M178.032257,114.997025 
	C178.098557,111.359848 178.164871,107.722679 178.019470,103.779869 
	C177.679657,102.882256 177.551559,102.290268 177.300018,101.507324 
	C177.572845,101.250114 177.969147,101.183868 178.870453,101.303543 
	C179.926865,101.585823 180.478256,101.682182 181.200562,102.073608 
	C182.215500,102.644211 183.059525,102.919746 183.903534,103.195282 
	C183.318787,104.890816 182.734039,106.586357 182.102875,108.947052 
	C182.375717,110.408783 182.694992,111.205360 183.014267,112.001938 
	C182.980682,112.428223 182.947098,112.854515 182.641785,113.771957 
	C182.105240,114.785599 181.840424,115.308083 181.575607,115.830566 
	C180.902969,115.856323 180.230347,115.882080 179.173126,115.685310 
	C178.611053,115.186417 178.358963,115.031158 178.032257,114.997025 
z"/>
<path fill="#6692AA" opacity="1.000000" stroke="none" 
	d="
M161.720337,110.770294 
	C163.636688,110.904884 165.764420,111.321388 168.048233,112.050095 
	C166.113449,111.925598 164.022583,111.488907 161.720337,110.770294 
z"/>
<path fill="#050F27" opacity="1.000000" stroke="none" 
	d="
M183.317322,111.910431 
	C182.694992,111.205360 182.375717,110.408783 182.090897,109.287804 
	C183.715546,109.343597 186.149734,109.281914 183.317322,111.910431 
z"/>
<path fill="#101621" opacity="1.000000" stroke="none" 
	d="
M183.930542,102.903603 
	C183.059525,102.919746 182.215500,102.644211 181.186096,101.861313 
	C181.000702,101.353966 180.992279,100.925331 180.992279,100.925331 
	C181.449524,100.936119 181.906769,100.946907 182.707520,100.975006 
	C183.184784,101.281502 183.370193,101.532532 183.796326,101.886070 
	C183.976105,102.221794 183.966827,102.416855 183.930542,102.903603 
z"/>
<path fill="#050F27" opacity="1.000000" stroke="none" 
	d="
M181.879929,115.829788 
	C181.840424,115.308083 182.105240,114.785599 182.608826,114.090988 
	C182.626495,114.555580 182.405380,115.192299 181.879929,115.829788 
z"/>
<path fill="#6692AA" opacity="1.000000" stroke="none" 
	d="
M173.050232,113.328217 
	C173.657623,113.374313 174.295410,113.764717 175.017685,114.447403 
	C174.428314,114.383972 173.754471,114.028244 173.050232,113.328217 
z"/>
<path fill="#101621" opacity="1.000000" stroke="none" 
	d="
M196.778000,109.226044 
	C196.873550,109.676521 196.752304,110.349777 196.385345,111.132980 
	C196.280182,110.644890 196.420685,110.046852 196.778000,109.226044 
z"/>
<path fill="#6692AA" opacity="1.000000" stroke="none" 
	d="
M177.718231,115.024780 
	C178.358963,115.031158 178.611053,115.186417 178.836548,115.685989 
	C178.285095,115.846962 177.685638,115.784737 176.936432,115.451294 
	C176.992554,115.137550 177.198380,115.095039 177.718231,115.024780 
z"/>
<path fill="#101621" opacity="1.000000" stroke="none" 
	d="
M197.620972,107.178146 
	C197.728333,107.338753 197.588379,107.575073 197.176987,107.866768 
	C197.113388,107.725868 197.269409,107.503113 197.620972,107.178146 
z"/>
<path fill="#451112" opacity="1.000000" stroke="none" 
	d="
M204.873749,86.957611 
	C202.429276,87.801308 199.984802,88.645012 197.252213,89.696228 
	C190.755814,89.701294 186.232880,86.960426 183.408081,81.041626 
	C183.058655,80.947708 183.050415,80.986816 183.072693,80.716141 
	C183.087723,80.264542 183.080460,80.083633 183.086273,79.536484 
	C183.447388,76.465294 183.795441,73.760345 184.330994,70.839294 
	C184.680984,70.080170 184.843491,69.537125 185.126617,68.755035 
	C185.518188,68.054085 185.789139,67.592194 186.430893,67.125031 
	C187.296219,67.141624 187.790741,67.163483 188.251236,67.600952 
	C188.226349,71.637749 188.235489,75.258942 188.228943,79.252167 
	C188.191574,79.871490 188.169891,80.118774 188.003464,80.339554 
	C187.858704,80.313049 187.753326,80.593536 187.753326,80.593536 
	C187.753326,80.593536 188.152023,80.628151 188.200012,80.956177 
	C188.566391,81.826851 188.884781,82.369514 189.220001,83.258209 
	C190.423904,83.953529 191.610962,84.302818 193.145721,84.811409 
	C199.491837,87.769066 200.430573,82.665535 202.110489,79.202042 
	C202.948318,77.474663 203.809204,74.153229 203.053268,73.543076 
	C200.174896,71.219826 199.638794,65.379211 193.696167,66.857521 
	C192.969131,66.690079 192.547394,66.621696 191.839996,66.432999 
	C190.735596,66.268135 189.916870,66.223579 189.071442,65.790955 
	C189.058044,64.627083 189.071335,63.851280 189.084610,63.075478 
	C189.084610,63.075478 189.546417,63.049355 190.103928,63.031242 
	C191.443634,62.705750 192.225815,62.398373 193.007996,62.090992 
	C195.685593,62.076870 198.363190,62.062752 201.480423,62.081818 
	C203.067200,64.285721 204.214340,66.456436 205.780853,69.121445 
	C206.468506,70.706902 206.736801,71.798065 206.944397,73.250420 
	C206.949661,75.691177 207.015610,77.770744 207.034241,80.227570 
	C206.282532,82.722420 205.578140,84.840019 204.873749,86.957611 
z"/>
<path fill="#0E121E" opacity="1.000000" stroke="none" 
	d="
M184.143494,71.055389 
	C183.795441,73.760345 183.447388,76.465294 182.959869,79.656319 
	C182.772736,80.244637 182.659317,80.377068 182.689804,80.443436 
	C182.779404,80.638611 182.926086,80.807587 183.050415,80.986816 
	C183.050415,80.986816 183.058655,80.947708 183.081772,80.945129 
	C181.605301,80.995941 180.105728,81.049339 178.006134,81.047249 
	C177.230865,80.258247 177.055588,79.524719 176.887390,78.380966 
	C177.054703,75.161064 177.564911,72.200386 173.976593,70.607529 
	C174.143524,69.315598 174.237717,68.455612 174.619202,67.520889 
	C176.006577,66.291161 177.106659,65.136162 178.206726,63.981171 
	C180.186829,63.987686 182.166901,63.994202 184.706985,64.305458 
	C185.531357,65.450233 185.795715,66.290268 186.060089,67.130295 
	C185.789139,67.592194 185.518188,68.054085 184.859894,68.809509 
	C184.362869,69.753830 184.253189,70.404610 184.143494,71.055389 
z"/>
<path fill="#051329" opacity="1.000000" stroke="none" 
	d="
M178.778259,84.969528 
	C178.876297,85.959801 179.241348,87.751465 179.032608,87.821014 
	C175.487381,89.002220 171.898788,90.644241 168.262421,90.794281 
	C164.641800,90.943672 160.957413,89.548035 157.605164,88.441132 
	C162.680695,87.626938 167.452072,87.201462 172.529236,86.756523 
	C174.009445,86.166634 175.183868,85.596207 176.663269,85.038605 
	C177.571579,85.024132 178.174911,84.996826 178.778259,84.969528 
z"/>
<path fill="#609EC3" opacity="1.000000" stroke="none" 
	d="
M172.223450,86.775986 
	C167.452072,87.201462 162.680695,87.626938 157.446655,88.110504 
	C154.083115,88.031006 151.182205,87.893425 148.128571,87.083420 
	C147.985291,85.651871 147.994751,84.892738 148.398407,84.103989 
	C152.507416,84.127327 156.222275,84.180283 160.104919,84.587555 
	C164.256302,85.553246 168.239883,86.164612 172.223450,86.775986 
z"/>
<path fill="#031534" opacity="1.000000" stroke="none" 
	d="
M129.474457,89.014374 
	C126.897552,88.892586 124.782265,88.761108 122.761429,88.357109 
	C125.906944,87.719353 128.958008,87.354126 132.381226,86.944168 
	C133.501282,86.857880 134.249176,86.816322 135.247574,86.842834 
	C135.663895,86.861450 135.829727,86.811996 136.366272,86.799484 
	C137.477371,86.782051 138.217758,86.727669 139.271484,86.774628 
	C140.429916,87.071266 141.274979,87.266579 142.088837,87.838699 
	C142.032227,88.466293 142.006836,88.717072 141.981461,88.967850 
	C137.966324,88.980125 133.951202,88.992409 129.474457,89.014374 
z"/>
<path fill="#182939" opacity="1.000000" stroke="none" 
	d="
M178.977585,84.784286 
	C178.174911,84.996826 177.571579,85.024132 176.505463,84.817627 
	C175.482452,84.131989 174.922211,83.680161 174.308334,82.909882 
	C173.901550,82.083656 173.548401,81.575867 173.504272,80.938889 
	C174.835632,80.136871 175.857971,79.464035 176.880310,78.791199 
	C177.055588,79.524719 177.230865,80.258247 177.658844,81.001038 
	C178.376099,81.630501 178.973785,82.195892 179.259323,82.889740 
	C179.455856,83.367332 179.219681,84.022980 178.977585,84.784286 
z"/>
<path fill="#5984B5" opacity="1.000000" stroke="none" 
	d="
M142.120056,87.461891 
	C141.274979,87.266579 140.429916,87.071266 139.373550,86.500885 
	C140.118240,85.476372 141.074203,84.826942 142.372375,84.166275 
	C143.814697,84.431099 144.914810,84.707184 146.138733,85.180099 
	C146.471115,85.613060 146.719482,85.794853 147.009323,86.148636 
	C147.011047,86.374954 146.965118,86.825264 146.965118,86.825256 
	C146.503372,87.184540 146.041626,87.543823 144.934494,87.943756 
	C143.566086,87.810242 142.843063,87.636063 142.120056,87.461891 
z"/>
<path fill="#020818" opacity="1.000000" stroke="none" 
	d="
M142.088837,87.838699 
	C142.843063,87.636063 143.566086,87.810242 144.652496,88.065704 
	C144.149231,88.558083 143.282578,88.969170 142.198700,89.174057 
	C142.006836,88.717072 142.032227,88.466293 142.088837,87.838699 
z"/>
<path fill="#080D1A" opacity="1.000000" stroke="none" 
	d="
M180.808716,100.765709 
	C180.992279,100.925331 181.000702,101.353966 181.015167,101.566254 
	C180.478256,101.682182 179.926865,101.585823 179.172394,101.292198 
	C179.521255,100.931984 180.073212,100.769035 180.808716,100.765709 
z"/>
<path fill="#5D98C8" opacity="1.000000" stroke="none" 
	d="
M147.204803,86.917023 
	C146.965118,86.825264 147.011047,86.374954 146.995544,85.887672 
	C146.966415,85.226219 146.952774,85.052055 147.075897,84.700912 
	C147.436935,84.313576 147.700775,84.183464 148.004211,84.133614 
	C147.994751,84.892738 147.985291,85.651871 147.953552,86.791344 
	C147.769012,87.117393 147.606750,87.063087 147.204803,86.917023 
z"/>
<path fill="#051329" opacity="1.000000" stroke="none" 
	d="
M182.489349,86.482750 
	C182.511749,86.473633 182.466949,86.491867 182.489349,86.482750 
z"/>
<path fill="#111826" opacity="1.000000" stroke="none" 
	d="
M188.010849,34.261276 
	C193.324448,34.115948 198.848907,33.329788 203.894928,34.539440 
	C209.488052,35.880249 210.493210,42.374275 206.590530,46.883301 
	C206.160004,47.380733 205.734375,47.882404 205.120331,48.675888 
	C199.495636,48.803471 194.057053,48.637272 188.492599,48.013977 
	C189.352692,47.054745 190.292252,46.353905 191.338440,46.109516 
	C192.278976,45.889805 193.336563,46.171185 194.342529,46.231533 
	C194.348572,45.314854 194.703445,44.186939 194.298904,43.518894 
	C192.735657,40.937401 194.231964,40.351429 196.535645,40.178658 
	C198.426712,41.831276 196.334381,47.881084 201.639252,44.666710 
	C203.150879,43.750782 204.597000,40.992287 204.359070,39.323036 
	C203.986206,36.706913 198.664871,35.552597 195.593140,36.935955 
	C192.827332,36.232716 190.421539,35.606010 188.015732,34.979305 
	C188.015732,34.979305 188.010712,34.500626 188.010849,34.261276 
z"/>
<path fill="#040711" opacity="1.000000" stroke="none" 
	d="
M196.316010,39.989338 
	C194.231964,40.351429 192.735657,40.937401 194.298904,43.518894 
	C194.703445,44.186939 194.348572,45.314854 194.342529,46.231533 
	C193.336563,46.171185 192.278976,45.889805 191.338440,46.109516 
	C190.292252,46.353905 189.352692,47.054745 188.167236,47.783199 
	C187.134964,47.780991 186.302139,47.552460 184.981659,47.155235 
	C184.293030,46.990055 184.092072,46.993580 183.891098,46.997105 
	C183.891098,46.997105 183.536224,47.007427 183.294495,46.596710 
	C183.056808,44.797604 183.060837,43.409206 183.437195,42.005211 
	C185.090424,41.013783 186.371323,40.037960 187.652222,39.062134 
	C186.771561,38.381557 185.890915,37.700985 185.010254,37.020409 
	C185.802170,36.344814 186.594070,35.669216 187.700867,34.986465 
	C190.421539,35.606010 192.827332,36.232716 195.656494,37.305191 
	C196.158569,38.497089 196.237289,39.243214 196.316010,39.989338 
M186.899078,44.624542 
	C186.899078,44.624542 187.160034,44.444576 187.160034,44.444576 
	C187.160034,44.444576 186.817108,44.467377 186.899078,44.624542 
M184.498718,45.535084 
	C184.498718,45.535084 184.477234,45.485157 184.498718,45.535084 
z"/>
<path fill="#1F3B5C" opacity="1.000000" stroke="none" 
	d="
M183.064880,42.020813 
	C183.060837,43.409206 183.056808,44.797604 183.117004,46.598671 
	C182.678070,48.017044 182.174911,49.022739 181.335175,50.130066 
	C180.035416,50.086933 179.072235,49.942173 177.761002,49.713741 
	C176.632858,48.787754 175.852753,47.945438 175.389160,46.667015 
	C181.083649,43.736362 178.209915,38.933044 178.818863,35.104156 
	C179.730728,34.788048 180.642578,34.471931 181.522202,34.166996 
	C181.973206,35.195202 182.342850,36.037941 182.899323,37.325676 
	C183.079056,39.187382 183.071960,40.604099 183.064880,42.020813 
z"/>
<path fill="#A6DFF1" opacity="1.000000" stroke="none" 
	d="
M178.496185,35.216793 
	C178.209915,38.933044 181.083649,43.736362 175.334183,46.379875 
	C174.484924,46.426975 174.007141,46.325111 173.244781,45.627369 
	C171.816345,44.103733 170.614624,43.237343 169.546173,42.229645 
	C168.618210,41.354439 167.841049,40.319347 166.997238,39.354908 
	C170.722656,38.013081 174.448090,36.671253 178.496185,35.216793 
z"/>
<path fill="#73A4B9" opacity="1.000000" stroke="none" 
	d="
M166.682220,39.263500 
	C167.841049,40.319347 168.618210,41.354439 169.546173,42.229645 
	C170.614624,43.237343 171.816345,44.103733 172.964294,45.391541 
	C172.968414,45.751595 173.305130,46.010990 172.988312,45.966034 
	C172.477417,45.884438 172.283310,45.847797 172.089188,45.811153 
	C168.136261,44.732704 164.183334,43.654255 160.230408,42.575802 
	C160.066147,42.218845 159.901886,41.861885 159.737640,41.504929 
	C161.947479,40.727318 164.157333,39.949703 166.682220,39.263500 
z"/>
<path fill="#111826" opacity="1.000000" stroke="none" 
	d="
M183.437195,42.005211 
	C183.071960,40.604099 183.079056,39.187382 183.158661,37.347023 
	C183.231171,36.923378 183.684082,36.977631 183.992828,37.120995 
	C184.301575,37.264359 184.703232,37.299408 184.703232,37.299408 
	C184.703232,37.299408 185.016663,37.007931 185.016663,37.007931 
	C185.016663,37.007931 185.002792,36.999588 185.006531,37.009998 
	C185.890915,37.700985 186.771561,38.381557 187.652222,39.062134 
	C186.371323,40.037960 185.090424,41.013783 183.437195,42.005211 
z"/>
<path fill="#040711" opacity="1.000000" stroke="none" 
	d="
M184.796738,37.011826 
	C185.016663,37.007931 184.703232,37.299408 184.703232,37.299408 
	C184.703232,37.299408 184.301575,37.264359 184.219360,37.147545 
	C184.137131,37.030731 184.576813,37.015724 184.796738,37.011826 
z"/>
<path fill="#1F3B5C" opacity="1.000000" stroke="none" 
	d="
M172.131256,45.975063 
	C172.283310,45.847797 172.477417,45.884438 172.868988,46.141891 
	C172.768768,46.288132 172.471039,46.213554 172.131256,45.975063 
z"/>
<path fill="#141823" opacity="1.000000" stroke="none" 
	d="
M204.022644,59.013149 
	C197.477859,61.230553 193.559860,60.491051 189.649765,55.958279 
	C194.291016,54.940704 198.710800,53.971687 203.573212,53.318138 
	C204.018112,55.426785 204.020370,57.219967 204.022644,59.013149 
z"/>
<path fill="#6790B8" opacity="1.000000" stroke="none" 
	d="
M178.071045,63.729935 
	C177.106659,65.136162 176.006577,66.291161 174.304688,67.600906 
	C173.487625,67.741531 173.272354,67.727402 173.005417,67.331024 
	C171.434662,66.285500 169.943344,65.142784 168.390991,65.052750 
	C164.422760,64.822586 160.427338,65.061340 156.442780,65.112534 
	C157.967285,64.523674 159.465851,63.519459 161.021072,63.422302 
	C166.088608,63.105740 171.176834,63.120461 176.631058,62.917866 
	C177.315125,63.044918 177.625244,63.261814 178.071045,63.729935 
z"/>
<path fill="#0F0E18" opacity="1.000000" stroke="none" 
	d="
M204.351669,59.010796 
	C204.020370,57.219967 204.018112,55.426785 204.003418,53.324829 
	C204.435638,53.013546 204.880280,53.011032 205.658173,53.012199 
	C206.451569,53.954552 206.911743,54.893223 207.619629,56.224373 
	C207.244095,57.411266 206.620819,58.205685 205.997559,59.000103 
	C205.558609,59.002880 205.119644,59.005661 204.351669,59.010796 
z"/>
<path fill="#1F080C" opacity="1.000000" stroke="none" 
	d="
M186.430878,67.125031 
	C185.795715,66.290268 185.531357,65.450233 185.132507,64.310318 
	C186.121765,63.689590 187.245499,63.368740 188.726929,63.061684 
	C189.071335,63.851280 189.058044,64.627083 188.992432,65.999008 
	C188.781906,66.858513 188.563614,67.055252 188.285263,67.185349 
	C187.790741,67.163483 187.296219,67.141624 186.430878,67.125031 
z"/>
<path fill="#141823" opacity="1.000000" stroke="none" 
	d="
M205.998779,59.000084 
	C206.620819,58.205685 207.244095,57.411266 207.940704,56.321030 
	C208.587982,56.514507 209.161926,57.003803 209.876358,57.744186 
	C209.727570,58.157688 209.477478,58.366920 209.129013,58.827080 
	C208.551849,59.029179 208.112244,59.027164 207.089783,59.015583 
	C206.338242,59.004730 206.169540,59.003448 206.000854,59.002163 
	C206.000854,59.002163 206.000000,59.000065 205.998779,59.000084 
z"/>
<path fill="#1F080C" opacity="1.000000" stroke="none" 
	d="
M192.792770,61.872925 
	C192.225815,62.398373 191.443634,62.705750 190.334412,63.012016 
	C190.864105,62.558887 191.720825,62.106873 192.792770,61.872925 
z"/>
<path fill="#0F0E18" opacity="1.000000" stroke="none" 
	d="
M207.717148,61.049377 
	C207.412994,61.233952 206.753571,61.398781 206.016663,61.309944 
	C206.413406,61.047398 206.887650,61.038517 207.717148,61.049377 
z"/>
<path fill="#111826" opacity="1.000000" stroke="none" 
	d="
M183.938721,47.207329 
	C184.092072,46.993580 184.293030,46.990055 184.796631,46.989845 
	C184.900269,47.336464 184.701248,47.679775 184.502243,48.023087 
	C184.330261,47.821243 184.158295,47.619396 183.938721,47.207329 
z"/>
<path fill="#0F0E18" opacity="1.000000" stroke="none" 
	d="
M206.106918,59.116924 
	C206.169540,59.003448 206.338242,59.004730 206.759979,59.013168 
	C207.013000,59.020321 206.647369,59.293110 206.647369,59.293110 
	C206.647369,59.293110 206.212982,59.231686 206.106918,59.116924 
z"/>
<path fill="#67ADDA" opacity="1.000000" stroke="none" 
	d="
M156.003876,64.991638 
	C160.427338,65.061340 164.422760,64.822586 168.390991,65.052750 
	C169.943344,65.142784 171.434662,66.285500 172.719055,67.478638 
	C171.997070,68.399071 171.509781,68.789627 170.650391,69.092545 
	C169.516632,68.983894 168.755005,68.962875 167.635101,68.889465 
	C166.555939,68.801247 165.835037,68.765427 164.791168,68.550110 
	C152.558655,70.075455 140.649765,71.784813 128.739044,73.481445 
	C126.289062,73.830444 123.838120,74.348938 121.377586,74.414864 
	C113.819901,74.617363 106.254028,74.532646 98.697983,74.770622 
	C94.435425,74.904877 90.185944,75.454147 85.518860,75.807289 
	C79.703224,75.455170 74.299294,75.112221 68.895363,74.769279 
	C68.609459,74.021019 68.323563,73.272766 67.981537,72.229019 
	C69.570618,71.717087 71.248734,71.638855 72.854431,71.256485 
	C76.626526,70.358208 80.320511,69.069252 84.126961,68.394432 
	C88.480728,67.622559 92.922012,67.344307 98.021286,66.826553 
	C99.527290,66.574432 100.337280,66.347343 101.147270,66.120247 
	C101.147270,66.120247 101.150291,66.068390 101.125938,66.075386 
	C102.498459,65.844872 103.895325,65.607361 105.896988,65.381927 
	C106.667755,65.329788 106.833733,65.265564 106.999718,65.201347 
	C107.448792,65.321152 107.897865,65.440956 108.688721,65.484711 
	C109.030502,65.408661 109.250031,65.404709 109.535843,65.542694 
	C110.628387,65.484711 111.435104,65.288727 112.241829,65.092743 
	C115.798157,64.170761 119.247330,62.835930 122.742073,65.752808 
	C123.764046,66.605797 125.914642,66.106583 128.144302,65.740051 
	C129.041428,64.864609 129.342178,64.476273 129.642914,64.087936 
	C136.209732,64.081291 142.777481,64.011139 149.342850,64.105133 
	C151.420120,64.134880 153.491104,64.603165 156.003876,64.991638 
z"/>
<path fill="#09152F" opacity="1.000000" stroke="none" 
	d="
M100.825272,66.091125 
	C100.337280,66.347343 99.527290,66.574432 98.391335,66.732925 
	C98.878006,66.463547 99.690636,66.262779 100.825272,66.091125 
z"/>
<path fill="#85E0FD" opacity="1.000000" stroke="none" 
	d="
M68.594437,74.822800 
	C74.299294,75.112221 79.703224,75.455170 85.537857,76.167221 
	C85.985054,77.013107 86.001541,77.489883 85.568161,77.975517 
	C82.432365,77.965576 79.746452,77.946785 76.618851,77.929802 
	C74.118317,77.954407 72.059464,77.977211 69.720612,77.852142 
	C68.655632,76.826523 67.870644,75.948776 67.085663,75.071030 
	C67.488281,75.006126 67.890900,74.941231 68.594437,74.822800 
z"/>
<path fill="#71BAEB" opacity="1.000000" stroke="none" 
	d="
M66.685753,75.041519 
	C67.870644,75.948776 68.655632,76.826523 69.656532,78.149612 
	C69.537933,79.089989 69.203423,79.585030 68.526398,80.060791 
	C66.480232,79.963013 64.776588,79.884521 63.072948,79.806030 
	C62.957470,77.412888 62.464428,74.766701 66.685753,75.041519 
z"/>
<path fill="#163360" opacity="1.000000" stroke="none" 
	d="
M62.705368,79.789978 
	C64.776588,79.884521 66.480232,79.963013 68.508911,80.230141 
	C68.833939,80.418770 68.806679,80.758102 68.442535,80.923355 
	C65.035233,81.258186 61.992062,81.427750 58.948891,81.597321 
	C58.915569,81.104774 58.882248,80.612228 58.815941,79.874428 
	C59.967903,79.677429 61.152847,79.725677 62.705368,79.789978 
z"/>
<path fill="#081127" opacity="1.000000" stroke="none" 
	d="
M43.117130,81.062134 
	C43.882042,81.022499 44.638779,81.307358 45.395512,81.592216 
	C44.502193,82.058975 43.608879,82.525742 42.381706,82.988152 
	C42.401550,82.451401 42.755249,81.919014 43.117130,81.062134 
z"/>
<path fill="#163360" opacity="1.000000" stroke="none" 
	d="
M55.819626,79.464432 
	C55.785503,79.791260 55.505154,79.882301 54.972679,79.793701 
	C54.963764,79.425896 55.248047,79.297424 55.819626,79.464432 
z"/>
<path fill="#09152F" opacity="1.000000" stroke="none" 
	d="
M111.755753,65.086830 
	C111.435104,65.288727 110.628387,65.484711 109.573059,65.439415 
	C109.972870,65.159073 110.621269,65.119995 111.755753,65.086830 
z"/>
<path fill="#09152F" opacity="1.000000" stroke="none" 
	d="
M129.308044,64.257919 
	C129.342178,64.476273 129.041428,64.864609 128.384308,65.415573 
	C128.343018,65.194778 128.658096,64.811340 129.308044,64.257919 
z"/>
<path fill="#5CA0DA" opacity="1.000000" stroke="none" 
	d="
M68.806679,80.758102 
	C68.806679,80.758102 68.833939,80.418770 68.851425,80.249420 
	C69.203423,79.585030 69.537933,79.089989 69.936531,78.297478 
	C72.059464,77.977211 74.118317,77.954407 76.673996,78.288864 
	C80.136269,80.483170 83.101723,82.320221 86.067177,84.157265 
	C85.620125,84.740372 85.173080,85.323471 84.543457,86.121201 
	C84.360886,86.335823 84.216240,86.389191 84.117332,86.506348 
	C84.018425,86.623505 84.025139,86.831245 84.025139,86.831245 
	C82.901657,86.572044 81.778183,86.312843 80.241402,85.629761 
	C77.739380,84.377731 75.647240,83.558037 73.563034,82.718681 
	C71.972382,82.078079 70.391762,81.412544 68.806679,80.758102 
z"/>
<path fill="#6488B6" opacity="1.000000" stroke="none" 
	d="
M68.442535,80.923355 
	C70.391762,81.412544 71.972382,82.078079 73.563034,82.718681 
	C75.647240,83.558037 77.739380,84.377731 79.901978,85.540848 
	C72.857468,85.219597 65.737289,84.580078 58.630714,83.814293 
	C58.446484,83.794441 58.411011,82.394104 58.627525,81.617447 
	C61.992062,81.427750 65.035233,81.258186 68.442535,80.923355 
z"/>
<path fill="#0E2346" opacity="1.000000" stroke="none" 
	d="
M84.028465,87.103195 
	C84.025139,86.831245 84.018425,86.623505 84.113998,86.583359 
	C84.411232,87.173859 84.612885,87.804489 84.814537,88.435127 
	C84.675682,88.477356 84.536827,88.519592 84.397964,88.561821 
	C84.275909,88.166260 84.153854,87.770706 84.028465,87.103195 
z"/>
<path fill="#03050C" opacity="1.000000" stroke="none" 
	d="
M198.002136,101.998039 
	C198.301514,102.152702 198.598740,102.309280 198.895981,102.465866 
	C198.672089,102.408279 198.448212,102.350693 198.111038,102.148346 
	C197.997757,102.003593 198.000000,101.999962 198.002136,101.998039 
z"/>
<path fill="#07122B" opacity="1.000000" stroke="none" 
	d="
M106.908272,65.052917 
	C106.833733,65.265564 106.667755,65.329788 106.252571,65.298172 
	C106.274513,65.103043 106.545670,65.003761 106.908272,65.052917 
z"/>
<path fill="#5D98C8" opacity="1.000000" stroke="none" 
	d="
M142.030182,84.177521 
	C141.074203,84.826942 140.118240,85.476372 139.060196,86.399551 
	C138.217758,86.727669 137.477371,86.782051 136.256531,86.701454 
	C135.471146,86.451759 135.211487,86.521187 134.997086,86.774765 
	C134.249176,86.816322 133.501282,86.857880 132.061829,86.721924 
	C126.206825,86.051857 121.043373,85.559296 115.879929,85.066734 
	C109.540794,85.019775 103.201660,84.972809 96.408813,85.064758 
	C95.519539,85.164169 95.083977,85.124649 94.322739,85.044540 
	C94.008553,84.829895 94.020042,84.655830 94.188171,83.964310 
	C95.247002,82.930511 96.149193,82.414162 97.513008,81.927055 
	C108.259529,82.335518 118.547050,82.656860 128.828110,83.121094 
	C133.235718,83.320122 137.629898,83.816330 142.030182,84.177521 
z"/>
<path fill="#5984B5" opacity="1.000000" stroke="none" 
	d="
M115.897842,85.409660 
	C121.043373,85.559296 126.206825,86.051857 131.689667,86.766663 
	C128.958008,87.354126 125.906944,87.719353 122.419586,88.178131 
	C120.244049,87.917480 118.504807,87.563293 116.373505,87.166733 
	C115.959549,86.667099 115.937653,86.209846 115.897842,85.409660 
z"/>
<path fill="#69C1EC" opacity="1.000000" stroke="none" 
	d="
M97.051384,81.897812 
	C96.149193,82.414162 95.247002,82.930511 94.167938,83.703430 
	C91.596390,84.001488 89.201714,84.042984 86.437103,84.120872 
	C83.101723,82.320221 80.136269,80.483170 77.115677,78.287064 
	C79.746452,77.946785 82.432365,77.965576 86.022377,77.996796 
	C90.614082,78.347244 94.301704,78.685257 97.947067,79.326111 
	C97.620338,80.385246 97.335861,81.141525 97.051384,81.897812 
z"/>
<path fill="#1E2A3D" opacity="1.000000" stroke="none" 
	d="
M218.016296,83.602325 
	C216.843430,83.805664 215.688568,83.631531 214.085449,83.011665 
	C213.086838,82.052261 212.536499,81.538597 212.343567,80.948059 
	C217.531479,78.493790 216.307816,75.020241 214.329437,71.450798 
	C215.361740,71.026802 216.314117,70.635635 218.487686,69.742889 
	C216.103729,69.329292 215.038620,69.144508 213.973526,68.959724 
	C216.688904,65.109604 219.485321,69.009407 222.609924,68.946938 
	C221.331635,73.755325 219.682968,78.490082 218.016296,83.602325 
z"/>
<path fill="#2F3B4F" opacity="1.000000" stroke="none" 
	d="
M213.648590,68.964386 
	C215.038620,69.144508 216.103729,69.329292 218.487686,69.742889 
	C216.314117,70.635635 215.361740,71.026802 214.329437,71.450798 
	C216.307816,75.020241 217.531479,78.493790 212.052658,80.885109 
	C210.938736,80.554626 210.473114,80.210220 210.200165,79.565887 
	C211.002838,77.148453 211.612885,75.030952 212.432663,72.185417 
	C209.792206,72.527817 208.398636,72.708519 207.005096,72.889229 
	C206.736801,71.798065 206.468506,70.706902 206.063110,69.302452 
	C206.106461,68.978249 206.286911,68.967339 207.154572,68.967758 
	C209.235504,68.971329 210.629272,68.963570 212.023026,68.955818 
	C212.456558,68.960236 212.890106,68.964645 213.648590,68.964386 
z"/>
<path fill="#1E2A3D" opacity="1.000000" stroke="none" 
	d="
M211.931015,68.643585 
	C210.629272,68.963570 209.235504,68.971329 207.425354,68.953316 
	C208.170258,65.093567 209.905106,65.906105 211.931015,68.643585 
z"/>
<path fill="#05050B" opacity="1.000000" stroke="none" 
	d="
M190.813705,97.972717 
	C191.589828,97.636520 192.358765,97.572662 193.127686,97.508804 
	C193.122772,97.840332 193.117859,98.171852 193.112946,98.503372 
	C192.344147,98.417259 191.575333,98.331154 190.813705,97.972717 
z"/>
<path fill="#1B1E2B" opacity="1.000000" stroke="none" 
	d="
M210.007507,79.865814 
	C210.473114,80.210220 210.938736,80.554626 211.695251,80.961983 
	C212.536499,81.538597 213.086838,82.052261 213.813080,82.787811 
	C211.197906,84.237099 208.406799,85.464493 205.244720,86.824753 
	C205.578140,84.840019 206.282532,82.722420 207.398804,80.220856 
	C208.542953,79.846535 209.275238,79.856171 210.007507,79.865814 
z"/>
<path fill="#AA2D1A" opacity="1.000000" stroke="none" 
	d="
M194.001465,66.956573 
	C199.638794,65.379211 200.174896,71.219826 203.053268,73.543076 
	C203.809204,74.153229 202.948318,77.474663 202.110489,79.202042 
	C200.430573,82.665535 199.491837,87.769066 192.989471,84.656097 
	C192.075150,83.939499 191.664764,83.537521 191.581497,83.028061 
	C192.077957,81.921532 192.405930,80.919441 192.386841,79.924004 
	C192.329895,76.952194 192.136902,73.982986 192.002167,71.008865 
	C192.007309,71.004974 192.011246,70.992661 192.155624,70.874954 
	C192.208435,70.429543 192.116867,70.101845 192.055969,69.644394 
	C192.086639,69.514648 192.117493,69.249771 192.408401,69.120583 
	C193.133362,68.313118 193.567413,67.634842 194.001465,66.956573 
M199.688660,73.599243 
	C197.995438,73.860870 196.276138,74.034897 194.649200,74.519226 
	C194.485931,74.567833 194.509369,77.008423 195.102020,77.441597 
	C196.141113,78.201088 198.498383,78.931618 198.862854,78.488731 
	C199.759995,77.398582 199.838989,75.635132 199.688660,73.599243 
z"/>
<path fill="#AD4A3E" opacity="1.000000" stroke="none" 
	d="
M192.117493,69.249771 
	C192.117493,69.249771 192.086639,69.514648 192.044342,69.950157 
	C192.005127,70.587997 192.008179,70.790329 192.011246,70.992661 
	C192.011246,70.992661 192.007309,71.004974 191.648285,71.023483 
	C190.695984,72.054588 189.945953,73.009506 189.546890,74.093605 
	C188.977905,75.639458 188.666229,77.280029 188.244629,78.880142 
	C188.235489,75.258942 188.226349,71.637749 188.251236,67.600952 
	C188.563614,67.055252 188.781906,66.858513 189.019135,66.387085 
	C189.916870,66.223579 190.735596,66.268135 191.761078,66.716293 
	C192.017731,67.829849 192.067612,68.539810 192.117493,69.249771 
z"/>
<path fill="#C75243" opacity="1.000000" stroke="none" 
	d="
M188.228943,79.252167 
	C188.666229,77.280029 188.977905,75.639458 189.546890,74.093605 
	C189.945953,73.009506 190.695984,72.054588 191.643158,71.027374 
	C192.136902,73.982986 192.329895,76.952194 192.386841,79.924004 
	C192.405930,80.919441 192.077957,81.921532 191.237701,82.978256 
	C190.112244,82.994682 189.657715,82.953423 189.203156,82.912170 
	C188.884781,82.369514 188.566391,81.826851 188.200302,80.891632 
	C188.152603,80.499062 188.148224,80.366066 188.148224,80.366066 
	C188.169891,80.118774 188.191574,79.871490 188.228943,79.252167 
z"/>
<path fill="#535E6D" opacity="1.000000" stroke="none" 
	d="
M210.200165,79.565887 
	C209.275238,79.856171 208.542953,79.846535 207.446136,79.843605 
	C207.015610,77.770744 206.949661,75.691177 206.944397,73.250420 
	C208.398636,72.708519 209.792206,72.527817 212.432663,72.185417 
	C211.612885,75.030952 211.002838,77.148453 210.200165,79.565887 
z"/>
<path fill="#AD4A3E" opacity="1.000000" stroke="none" 
	d="
M189.220016,83.258202 
	C189.657715,82.953423 190.112244,82.994682 190.910583,83.085739 
	C191.664764,83.537521 192.075150,83.939499 192.641769,84.496796 
	C191.610962,84.302818 190.423904,83.953529 189.220016,83.258202 
z"/>
<path fill="#C75243" opacity="1.000000" stroke="none" 
	d="
M192.408401,69.120583 
	C192.067612,68.539810 192.017731,67.829849 192.046753,66.836601 
	C192.547394,66.621696 192.969131,66.690079 193.696167,66.857513 
	C193.567413,67.634842 193.133362,68.313118 192.408401,69.120583 
z"/>
<path fill="#1F080C" opacity="1.000000" stroke="none" 
	d="
M184.330994,70.839294 
	C184.253189,70.404610 184.362869,69.753830 184.739288,69.048561 
	C184.843491,69.537125 184.680984,70.080170 184.330994,70.839294 
z"/>
<path fill="#AD4A3E" opacity="1.000000" stroke="none" 
	d="
M188.003464,80.339554 
	C188.148224,80.366066 188.152603,80.499062 188.152313,80.563606 
	C188.152023,80.628151 187.753326,80.593536 187.753326,80.593536 
	C187.753326,80.593536 187.858704,80.313049 188.003464,80.339554 
z"/>
<path fill="#05050B" opacity="1.000000" stroke="none" 
	d="
M183.072693,80.716133 
	C182.926086,80.807587 182.779404,80.638611 182.689804,80.443436 
	C182.659317,80.377068 182.772736,80.244637 182.946808,80.022552 
	C183.080460,80.083633 183.087723,80.264542 183.072693,80.716133 
z"/>
<path fill="#DDF4EC" opacity="1.000000" stroke="none" 
	d="
M176.887390,78.380966 
	C175.857971,79.464035 174.835632,80.136871 173.157410,80.786118 
	C169.155670,78.500999 163.759460,79.969269 162.077011,74.714645 
	C162.501343,73.995216 162.777817,73.511864 163.385651,73.007523 
	C164.504471,72.354851 165.291931,71.723175 166.395416,71.083328 
	C167.132477,71.072342 167.553528,71.069527 168.191742,71.261223 
	C169.267715,71.318687 170.126541,71.181648 171.350098,71.047546 
	C172.444489,71.046814 173.174179,71.043144 173.903854,71.039467 
	C177.564911,72.200386 177.054703,75.161064 176.887390,78.380966 
z"/>
<path fill="#A3EBF1" opacity="1.000000" stroke="none" 
	d="
M173.976593,70.607529 
	C173.174179,71.043144 172.444489,71.046814 171.351318,70.735168 
	C170.999390,70.006630 171.010956,69.593407 171.022522,69.180183 
	C171.509781,68.789627 171.997070,68.399071 172.770706,67.860901 
	C173.272354,67.727402 173.487625,67.741531 174.017395,67.675644 
	C174.237717,68.455612 174.143524,69.315598 173.976593,70.607529 
z"/>
<path fill="#7EC3DB" opacity="1.000000" stroke="none" 
	d="
M174.361954,83.228333 
	C174.922211,83.680161 175.482452,84.131989 176.200500,84.804794 
	C175.183868,85.596207 174.009445,86.166634 172.529236,86.756516 
	C168.239883,86.164612 164.256302,85.553246 160.136688,84.302185 
	C160.016342,83.473137 160.032028,83.283791 160.445496,83.079987 
	C161.910583,83.039429 162.977905,83.013329 164.503479,83.010635 
	C168.095154,83.098801 171.228546,83.163567 174.361954,83.228333 
z"/>
<path fill="#73CAED" opacity="1.000000" stroke="none" 
	d="
M160.047729,83.094437 
	C160.032028,83.283791 160.016342,83.473137 159.968872,83.947861 
	C156.222275,84.180283 152.507416,84.127327 148.398392,84.103989 
	C147.700775,84.183464 147.436935,84.313576 146.844894,84.725365 
	C146.477127,84.926781 146.014923,84.983269 146.014923,84.983269 
	C144.914810,84.707184 143.814697,84.431099 142.372375,84.166267 
	C137.629898,83.816330 133.235718,83.320122 128.828110,83.121094 
	C118.547050,82.656860 108.259529,82.335518 97.513008,81.927055 
	C97.335861,81.141525 97.620338,80.385246 98.406876,79.332771 
	C104.460426,78.497955 110.034554,77.346733 115.558617,77.550774 
	C126.394707,77.951035 137.202927,79.105949 148.343872,79.977097 
	C149.094971,80.026390 149.524887,80.047165 150.205521,80.302078 
	C151.972656,81.015251 153.489044,81.494286 155.378296,81.994308 
	C157.183334,82.375015 158.615540,82.734726 160.047729,83.094437 
z"/>
<path fill="#5984B5" opacity="1.000000" stroke="none" 
	d="
M135.247574,86.842834 
	C135.211487,86.521187 135.471146,86.451759 135.885803,86.664520 
	C135.829727,86.811996 135.663895,86.861450 135.247574,86.842834 
z"/>
<path fill="#C1F8F6" opacity="1.000000" stroke="none" 
	d="
M174.308334,82.909889 
	C171.228546,83.163567 168.095154,83.098801 164.425995,82.663727 
	C160.416046,76.439697 154.479050,77.425323 149.285126,76.640991 
	C153.645752,75.867958 157.787460,75.409340 161.929169,74.950722 
	C163.759460,79.969269 169.155670,78.500999 172.848389,80.915306 
	C173.548401,81.575867 173.901550,82.083656 174.308334,82.909889 
z"/>
<path fill="#609EC3" opacity="1.000000" stroke="none" 
	d="
M146.138733,85.180099 
	C146.014923,84.983269 146.477127,84.926781 146.708130,84.902328 
	C146.952774,85.052055 146.966415,85.226219 146.993835,85.661362 
	C146.719482,85.794853 146.471115,85.613060 146.138733,85.180099 
z"/>
<path fill="#39475A" opacity="1.000000" stroke="none" 
	d="
M196.535645,40.178658 
	C196.237289,39.243214 196.158569,38.497089 196.016510,37.381729 
	C198.664871,35.552597 203.986206,36.706913 204.359070,39.323036 
	C204.597000,40.992287 203.150879,43.750782 201.639252,44.666710 
	C196.334381,47.881084 198.426712,41.831276 196.535645,40.178658 
z"/>
<path fill="#111826" opacity="1.000000" stroke="none" 
	d="
M186.858093,44.545959 
	C186.817108,44.467377 187.160034,44.444576 187.160034,44.444576 
	C187.160034,44.444576 186.899078,44.624542 186.858093,44.545959 
z"/>
<path fill="#111826" opacity="1.000000" stroke="none" 
	d="
M184.487976,45.510120 
	C184.477234,45.485157 184.498718,45.535084 184.487976,45.510120 
z"/>
<path fill="#91ECFB" opacity="1.000000" stroke="none" 
	d="
M148.022675,79.948563 
	C137.202927,79.105949 126.394707,77.951035 115.558617,77.550774 
	C110.034554,77.346733 104.460426,78.497955 98.449127,79.029922 
	C94.301704,78.685257 90.614082,78.347244 86.472244,77.987946 
	C86.001541,77.489883 85.985054,77.013107 85.949570,76.176392 
	C90.185944,75.454147 94.435425,74.904877 98.697983,74.770622 
	C106.254028,74.532646 113.819901,74.617363 121.377586,74.414864 
	C123.838120,74.348938 126.289062,73.830444 128.739044,73.481445 
	C140.649765,71.784813 152.558655,70.075455 164.754059,68.912216 
	C165.014084,69.933479 164.988235,70.413139 164.713074,70.919235 
	C164.296844,70.957008 164.129944,70.968323 163.550995,71.005058 
	C158.589172,71.699249 154.028915,72.304779 149.493027,73.057259 
	C146.016418,73.634018 145.799591,74.329941 148.001038,77.369667 
	C148.008926,78.475334 148.015793,79.211952 148.022675,79.948563 
z"/>
<path fill="#C1F8F6" opacity="1.000000" stroke="none" 
	d="
M170.650391,69.092545 
	C171.010956,69.593407 170.999390,70.006630 170.986603,70.732231 
	C170.126541,71.181648 169.267715,71.318687 168.203186,70.906662 
	C167.996109,69.885689 167.994736,69.413773 167.993362,68.941864 
	C168.755005,68.962875 169.516632,68.983894 170.650391,69.092545 
z"/>
<path fill="#A3EBF1" opacity="1.000000" stroke="none" 
	d="
M167.635101,68.889465 
	C167.994736,69.413773 167.996109,69.885689 167.986038,70.712158 
	C167.553528,71.069527 167.132477,71.072342 166.115845,71.032806 
	C165.334320,70.957893 165.148346,70.925339 164.962372,70.892792 
	C164.988235,70.413139 165.014084,69.933479 165.077026,69.091721 
	C165.835037,68.765427 166.555939,68.801247 167.635101,68.889465 
z"/>
<path fill="#F38564" opacity="1.000000" stroke="none" 
	d="
M199.967834,73.870834 
	C199.838989,75.635132 199.759995,77.398582 198.862854,78.488731 
	C198.498383,78.931618 196.141113,78.201088 195.102020,77.441597 
	C194.509369,77.008423 194.485931,74.567833 194.649200,74.519226 
	C196.276138,74.034897 197.995438,73.860870 199.967834,73.870834 
z"/>
<path fill="#C75243" opacity="1.000000" stroke="none" 
	d="
M192.155624,70.874954 
	C192.008179,70.790329 192.005127,70.587997 192.013672,70.079910 
	C192.116867,70.101845 192.208435,70.429543 192.155624,70.874954 
z"/>
<path fill="#A3EBF1" opacity="1.000000" stroke="none" 
	d="
M148.000000,77.000610 
	C145.799591,74.329941 146.016418,73.634018 149.493027,73.057259 
	C154.028915,72.304779 158.589172,71.699249 163.439362,71.262344 
	C163.511276,72.005630 163.282791,72.517067 163.054291,73.028511 
	C162.777817,73.511864 162.501343,73.995216 162.077011,74.714645 
	C157.787460,75.409340 153.645752,75.867958 149.018341,76.655258 
	C148.355103,76.989479 148.177551,76.995041 148.000000,77.000610 
z"/>
<path fill="#C1F8F6" opacity="1.000000" stroke="none" 
	d="
M163.385651,73.007523 
	C163.282791,72.517067 163.511276,72.005630 163.851410,71.236908 
	C164.129944,70.968323 164.296844,70.957008 164.713058,70.919235 
	C165.148346,70.925339 165.334320,70.957893 165.799850,71.040977 
	C165.291931,71.723175 164.504471,72.354851 163.385651,73.007523 
z"/>
<path fill="#9FEAF4" opacity="1.000000" stroke="none" 
	d="
M148.001038,77.369667 
	C148.177551,76.995041 148.355103,76.989479 148.799408,76.969658 
	C154.479050,77.425323 160.416046,76.439697 163.967743,82.640327 
	C162.977905,83.013329 161.910583,83.039429 160.445496,83.079987 
	C158.615540,82.734726 157.183334,82.375015 155.284424,81.685631 
	C153.196732,80.926620 151.575760,80.497284 149.954788,80.067940 
	C149.524887,80.047165 149.094971,80.026390 148.343872,79.977089 
	C148.015793,79.211952 148.008926,78.475334 148.001038,77.369667 
z"/>
<path fill="#91ECFB" opacity="1.000000" stroke="none" 
	d="
M150.205521,80.302078 
	C151.575760,80.497284 153.196732,80.926620 154.911575,81.664642 
	C153.489044,81.494286 151.972656,81.015251 150.205521,80.302078 
z"/>
</svg>